/* XPM */
static char * bullet_xpm[] = {
"14 14 2 1",
" 	c None",
".	c #A5A5A6",
"              ",
"              ",
"              ",
"              ",
"              ",
"              ",
"       ....   ",
"       ....   ",
"       ....   ",
"       ....   ",
"              ",
"              ",
"              ",
"              "};
