/* XPM */
static char *close_xpm[] = {
"23 23 4 1",
" 	c None",
"1	c #C75151",
"2	c #F2F2F2",
"3	c #6AAEF7",
"11111111111111111111111",
"11111111111111111111111",
"11111111111111111111111",
"11111111111111111111111",
"11111111111111111111111",
"11111122111111122111111",
"11111122221112222111111",
"11111112222122221111111",
"11111111122222111111111",
"11111111122222111111111",
"11111112222122221111111",
"11111122221112222111111",
"11111122111111122111111",
"11111111111111111111111",
"11111111111111111111111",
"11111111111111111111111",
"11111111111111111111111",
"11111111111111111111111",
"33333333333333333333333",
"33333333333333333333333",
"33333333333333333333333",
"33333333333333333333333",
"33333333333333333333333"
};
