/* XPM */
static char *min_xpm[] = {
"23 23 5 1",
" 	c None",
"1	c #C75151",
"2	c #F2F2F2",
"3	c #6AAEF7",
"4	c #000000",
"33333333333333333333333",
"33333333333333333333333",
"33333333333333333333333",
"33333333333333333333333",
"33333333333333333333333",
"33333333333333333333333",
"33333333333333333333333",
"33333333333333333333333",
"33333333333333333333333",
"33333333333333333333333",
"33333333333333333333333",
"33333334444444443333333",
"33333334444444443333333",
"33333333333333333333333",
"33333333333333333333333",
"33333333333333333333333",
"33333333333333333333333",
"33333333333333333333333",
"33333333333333333333333",
"33333333333333333333333",
"33333333333333333333333",
"33333333333333333333333",
"33333333333333333333333"
};
