/* XPM */
static char *min_pressed_xpm[] = {
"23 23 5 1",
" 	c None",
"1	c #C75151",
"2	c #F2F2F2",
"3	c #6AAEF7",
"4	c #000000",
"22222222222222222222222",
"22222222222222222222222",
"22222222222222222222222",
"22222222222222222222222",
"22222222222222222222222",
"22222222222222222222222",
"22222222222222222222222",
"22222222222222222222222",
"22222222222222222222222",
"22222222222222222222222",
"22222222222222222222222",
"22222224444444442222222",
"22222224444444442222222",
"22222222222222222222222",
"22222222222222222222222",
"22222222222222222222222",
"22222222222222222222222",
"22222222222222222222222",
"22222222222222222222222",
"22222222222222222222222",
"22222222222222222222222",
"22222222222222222222222",
"22222222222222222222222"
};
