/* XPM */
static char *select_xpm[] = {
"13 16 2 1",
" 	c None",
"1	c #000000",
"             ",
"             ",
"             ",
"             ",
"    11111    ",
"    11111    ",
"    11111    ",
"    11111    ",
"    11111    ",
"             ",
"             ",
"             ",
"             ",
"             ",
"             ",
"             "
};
