/* XPM */
static char *unselect_xpm[] = {
"13 13 2 1",
" 	c None",
"1	c #FFFFFF",
"             ",
"             ",
"             ",
"    11111    ",
"    11111    ",
"    11111    ",
"    11111    ",
"    11111    ",
"             ",
"             ",
"             ",
"             ",
"             "
};
