/* XPM */
static char * bar_work_xpm[] = {
"48 20 125 2",
"  	c None",
". 	c #D2934A",
"+ 	c #D2924A",
"@ 	c #D19250",
"# 	c #BE7046",
"$ 	c #9F3205",
"% 	c #943120",
"& 	c #B4A5A8",
"* 	c #C7C9CF",
"= 	c #D2D5DB",
"- 	c #D49852",
"; 	c #D49752",
"> 	c #D3954E",
", 	c #C57522",
"' 	c #AD4B06",
") 	c #A66D5C",
"! 	c #BCBDC2",
"~ 	c #CACCD2",
"{ 	c #D3D6DC",
"] 	c #D3934B",
"^ 	c #D18F44",
"/ 	c #C16B10",
"( 	c #AB5119",
"_ 	c #AE9491",
": 	c #C2C4CA",
"< 	c #CED0D6",
"[ 	c #D5D8DE",
"} 	c #D08C41",
"| 	c #CE883A",
"1 	c #BF660B",
"2 	c #A95325",
"3 	c #B3A9A9",
"4 	c #C5C8CE",
"5 	c #D0D3D9",
"6 	c #D6D9DF",
"7 	c #CD8636",
"8 	c #CB8330",
"9 	c #BE650A",
"0 	c #A85426",
"a 	c #B5ACAD",
"b 	c #C6C9CF",
"c 	c #D1D4DA",
"d 	c #CA7F2A",
"e 	c #C97D26",
"f 	c #C0660A",
"g 	c #A95423",
"h 	c #B2A3A2",
"i 	c #C5C8CD",
"j 	c #C87921",
"k 	c #C8781F",
"l 	c #C26B0E",
"m 	c #AC5015",
"n 	c #AC8C86",
"o 	c #CED1D6",
"p 	c #C6751A",
"q 	c #C67519",
"r 	c #C36E0F",
"s 	c #B25106",
"t 	c #A86F5B",
"u 	c #BDBEC3",
"v 	c #CACDD2",
"w 	c #C57113",
"x 	c #C57213",
"y 	c #C47113",
"z 	c #C47010",
"A 	c #BA5C04",
"B 	c #A64E23",
"C 	c #B5ACAF",
"D 	c #C4C7CC",
"E 	c #C36E0D",
"F 	c #BF6507",
"G 	c #AE4A06",
"H 	c #AA8680",
"I 	c #BFBFC4",
"J 	c #CDD0D5",
"K 	c #C26A07",
"L 	c #C16806",
"M 	c #BA5B03",
"N 	c #A4573A",
"O 	c #B7B0B2",
"P 	c #C8CBD1",
"Q 	c #C16703",
"R 	c #C06304",
"S 	c #A64C20",
"T 	c #B2A0A0",
"U 	c #C06600",
"V 	c #C06502",
"W 	c #A84811",
"X 	c #AF9592",
"Y 	c #C3C6CB",
"Z 	c #C06501",
"` 	c #AA4606",
" .	c #AE9088",
"..	c #C16701",
"+.	c #C06601",
"@.	c #AB4502",
"#.	c #AE8E84",
"$.	c #C1C4C9",
"%.	c #C46A04",
"&.	c #C66C07",
"*.	c #AB4706",
"=.	c #AE8F87",
"-.	c #CA700A",
";.	c #CD720F",
">.	c #AA4911",
",.	c #AF9590",
"'.	c #C3C5CB",
").	c #D17711",
"!.	c #D27812",
"~.	c #D47717",
"{.	c #A84D20",
"].	c #B19E9E",
"^.	c #C5C7CD",
"/.	c #D67C16",
"(.	c #DD8121",
"_.	c #C96815",
":.	c #A3553A",
"<.	c #B7AFB1",
"[.	c #DA7332",
"}.	c #D56D2C",
"|.	c #C55921",
"1.	c #A3360F",
"2.	c #AA8885",
"3.	c #BFC0C5",
"4.	c #CCCFD5",
". + . + . . . + . + . . . . + . . . . . . . . . . . . . + . + . . . + . + . . . . @ # $ % & * = ",
"- - - - - - - - - - - - - - - - - - - - - - - - - - - - ; - - - - - - - - - - - - > , ' ) ! ~ { ",
"] ] ] ] ] ] ] ] ] ] ] ] ] ] ] ] ] ] ] ] ] ] ] ] ] ] ] ] ] ] ] ] ] ] ] ] ] ] ] ] ] ^ / ( _ : < [ ",
"} } } } } } } } } } } } } } } } } } } } } } } } } } } } } } } } } } } } } } } } } | 1 2 3 4 5 6 ",
"7 7 7 7 7 7 7 7 7 7 7 7 7 7 7 7 7 7 7 7 7 7 7 7 7 7 7 7 7 7 7 7 7 7 7 7 7 7 7 7 7 8 9 0 a b c 6 ",
"d d d d d d d d d d d d d d d d d d d d d d d d d d d d d d d d d d d d d d d d d e f g h i 5 [ ",
"j j j j j j j j j j j j j j j j j j j j j j j j j j j j j j j j j j j j j j j j j k l m n : o [ ",
"p q p q p q p p q p q p p q q p q p q p q p p p q q p q q p q p q p p q p q p p q q r s t u v { ",
"w w w w w w w x w w w w w w w w w w w w w w w w w w w w w w w w w w x w w w w w w y z A B C D 5 ",
"E E E E E E E E E E E E E E E E E E E E E E E E E E E E E E E E E E E E E E E E E E E F G H I J ",
"K K K K K K K K K K K K K K K K K K K K K K K K K K K K K K K K K K K K K K K K K K K L M N O P ",
"Q Q Q Q Q Q Q Q Q Q Q Q Q Q Q Q Q Q Q Q Q Q Q Q Q Q Q Q Q Q Q Q Q Q Q Q Q Q Q Q Q Q Q Q R S T i ",
"U U U U U U U U U U U U U U U U U U U U U U U U U U U U U U U U U U U U U U U U U U U U V W X Y ",
"U U U U U U U U U U U U U U U U U U U U U U U U U U U U U U U U U U U U U U U U U U U U Z `  .: ",
"........................................................................................+.@.#.$.",
"%.%.%.%.%.%.%.%.%.%.%.%.%.%.%.%.%.%.%.%.%.%.%.%.%.%.%.%.%.%.%.%.%.%.%.%.%.%.%.%.%.%.%.%.&.*.=.$.",
"-.-.-.-.-.-.-.-.-.-.-.-.-.-.-.-.-.-.-.-.-.-.-.-.-.-.-.-.-.-.-.-.-.-.-.-.-.-.-.-.-.-.-.-.;.>.,.'.",
").).).).).).).).).).).).).).).).).).).).).).).).).).).).).).).).).).).).).).).).).).).!.~.{.].^.",
"/././././././././././././././././././././././././././././././././././././././././././.(._.:.<.P ",
"[.[.[.[.[.[.[.[.[.[.[.[.[.[.[.[.[.[.[.[.[.[.[.[.[.[.[.[.[.[.[.[.[.[.[.[.[.[.[.[.[.[.}.|.1.2.3.4."};
