/* XPM */
static char * bar_focused_xpm[] = {
"1 20 19 1",
" 	c None",
".	c #D6D9DF",
"+	c #555555",
"@	c #C8CCD4",
"#	c #C0C5CD",
"$	c #BDC2CB",
"%	c #BABFC8",
"&	c #B5BBC6",
"*	c #B2B8C3",
"=	c #AFB5C1",
"-	c #ACB2BE",
";	c #A8AFBB",
">	c #A6ADB9",
",	c #AAB1BE",
"'	c #B1B8C5",
")	c #B9C0CD",
"!	c #C0C7D4",
"~	c #C7CEDB",
"{	c #D4DAE8",
".",
"+",
"@",
"#",
"$",
"%",
"&",
"*",
"=",
"-",
";",
">",
",",
"'",
")",
"!",
"~",
"{",
"+",
"."};
