/* XPM */
static char * bar_button_xpm[] = {
"20 20 5 1",
" 	c #D6D9DF",
".	c #ACAEB3",
"+	c #C7C8CC",
"@	c #555555",
"#	c #8F9093",
"                    ",
"                    ",
"                    ",
"                    ",
"                    ",
"                    ",
"      .+            ",
"      @@#+          ",
"      @@@@#+        ",
"      @@@@@@#+      ",
"      @@@@@@@@.     ",
"      @@@@@@#+      ",
"      @@@@#+        ",
"      @@#+          ",
"      .+            ",
"                    ",
"                    ",
"                    ",
"                    ",
"                    "};
