/* XPM */
static char * bar_unfocused_xpm[] = {
"1 20 18 1",
" 	c None",
".	c #D6D9DF",
"+	c #555555",
"@	c #F6F7F9",
"#	c #EFF0F3",
"$	c #ECEEF1",
"%	c #E9EBEE",
"&	c #E6E8EC",
"*	c #E3E5E9",
"=	c #E0E3E7",
"-	c #DDE0E4",
";	c #DADCE2",
">	c #D7DAE0",
",	c #D8DBE1",
"'	c #E0E3E9",
")	c #E7EAF0",
"!	c #EFF2F8",
"~	c #F7F9FD",
".",
"+",
"@",
"#",
"$",
"%",
"&",
"*",
"=",
"-",
";",
">",
".",
",",
"'",
")",
"!",
"~",
"+",
"."};
