/* XPM */
static char * bullet_black_xpm[] = {
"16 16 2 1",
" 	c None",
".	c #303030",
"                ",
"                ",
"                ",
"                ",
"                ",
"                ",
"         .      ",
"         ..     ",
"         ...    ",
"         ..     ",
"         .      ",
"                ",
"                ",
"                ",
"                ",
"                "};
