/* XPM */
static char * button_focus_max_xpm[] = {
"21 21 96 2",
"  	c None",
". 	c #F0F1F2",
"+ 	c #E3E5E8",
"@ 	c #DFE1E4",
"# 	c #A7ADAB",
"$ 	c #59635B",
"% 	c #1B281C",
"& 	c #000F00",
"* 	c #DBDDE1",
"= 	c #A4AAA9",
"- 	c #2D392E",
"; 	c #48562A",
"> 	c #7F8B50",
", 	c #9FAB69",
"' 	c #A4B06E",
") 	c #D7DADE",
"! 	c #58655A",
"~ 	c #445627",
"{ 	c #9AA762",
"] 	c #9EAB64",
"^ 	c #D3D6DB",
"/ 	c #20311C",
"( 	c #73823E",
"_ 	c #95A256",
": 	c #D0D3D8",
"< 	c #0B1F00",
"[ 	c #869642",
"} 	c #8A9944",
"| 	c #87973F",
"1 	c #F2F4EB",
"2 	c #FFFFFF",
"3 	c #CCCFD5",
"4 	c #122600",
"5 	c #809034",
"6 	c #768825",
"7 	c #C8CBD2",
"8 	c #1A2E00",
"9 	c #798A28",
"0 	c #6B7E12",
"a 	c #DBDFCC",
"b 	c #3B5400",
"c 	c #405800",
"d 	c #C4C8CE",
"e 	c #223600",
"f 	c #72841D",
"g 	c #657808",
"h 	c #DCE0CC",
"i 	c #576C00",
"j 	c #627603",
"k 	c #C0C4CB",
"l 	c #2A3E00",
"m 	c #5E7300",
"n 	c #BDC1C8",
"o 	c #324600",
"p 	c #66790A",
"q 	c #596E00",
"r 	c #B9BDC5",
"s 	c #3A4E00",
"t 	c #627604",
"u 	c #556A00",
"v 	c #DADECC",
"w 	c #B5B9C2",
"x 	c #425600",
"y 	c #B1B6BF",
"z 	c #4A5E00",
"A 	c #627605",
"B 	c #637705",
"C 	c #566B00",
"D 	c #CAD0B7",
"E 	c #DDE1CC",
"F 	c #ADB2BC",
"G 	c #60721A",
"H 	c #647809",
"I 	c #6B7F0D",
"J 	c #627800",
"K 	c #506800",
"L 	c #4B6400",
"M 	c #4F6600",
"N 	c #AAAFB9",
"O 	c #849154",
"P 	c #627608",
"Q 	c #738715",
"R 	c #728612",
"S 	c #6C8108",
"T 	c #687E02",
"U 	c #A6AE97",
"V 	c #73832A",
"W 	c #687C0C",
"X 	c #748816",
"Y 	c #7C901E",
"Z 	c #7D911F",
"` 	c #B3B7C0",
" .	c #ACB49C",
"..	c #8D9A57",
"+.	c #6F811E",
"@.	c #BEC2CA",
". . . . . . . . . . . . . . . . . . . . . ",
"+ + + + + + + + + + + + + + + + + + + + + ",
"@ @ # $ % & & & & & & & & & & & % $ # @ @ ",
"* = - ; > , ' ' ' ' ' ' ' ' ' , > ; - = * ",
") ! ~ { ] ] ] ] ] ] ] ] ] ] ] ] ] { ~ ! ) ",
"^ / ( _ _ _ _ _ _ _ _ _ _ _ _ _ _ _ ( / ^ ",
": < [ } | 1 2 2 2 2 2 2 2 2 2 1 | } [ < : ",
"3 4 5 5 6 2 2 2 2 2 2 2 2 2 2 2 6 5 5 4 3 ",
"7 8 9 9 0 a b c c c c c c c b a 0 9 9 8 7 ",
"d e f f g h i j j j j j j j i h g f f e d ",
"k l 0 0 m h m 0 0 0 0 0 0 0 m h m 0 0 l k ",
"n o p p q a q p p p p p p p q a q p p o n ",
"r s t t u v u t t t t t t t u v u t t s r ",
"w x t t u v u t t t t t t t u v u t t x w ",
"y z A B C D a E E E E E E E a D C B A z y ",
"F G H I J K L M M M M M M M L K J I H G F ",
"N O P Q R S T T T T T T T T T S R Q P O N ",
"N U V W X Y Z Z Z Z Z Z Z Z Z Y X W V U N ",
"N `  ...+.t t t t t t t t t t t +... .` N ",
"N N ` @.7 3 3 3 3 3 3 3 3 3 3 3 7 @.` N N ",
"N N N N N N N N N N N N N N N N N N N N N "};
