/* XPM */
static char * button_focus_stick_xpm[] = {
"21 21 91 1",
" 	c None",
".	c #F0F1F2",
"+	c #E3E5E8",
"@	c #DFE1E4",
"#	c #A7A9AE",
"$	c #595A62",
"%	c #1B1B27",
"&	c #00000C",
"*	c #DBDDE1",
"=	c #A4A6AC",
"-	c #2D2D38",
";	c #434753",
">	c #787E8A",
",	c #999EA9",
"'	c #9DA3AE",
")	c #D7DADE",
"!	c #585964",
"~	c #404453",
"{	c #949AA5",
"]	c #979DA8",
"^	c #D3D6DB",
"/	c #1B1E2F",
"(	c #6B7180",
"_	c #8D94A1",
":	c #D0D3D8",
"<	c #00091C",
"[	c #7E8593",
"}	c #818997",
"|	c #CCCFD5",
"1	c #061023",
"2	c #767F8D",
"3	c #C8CBD2",
"4	c #0E182B",
"5	c #6E7787",
"6	c #6C7586",
"7	c #D9DBDF",
"8	c #FFFFFF",
"9	c #C4C8CE",
"0	c #162033",
"a	c #677081",
"b	c #616A7C",
"c	c #596275",
"d	c #FAFAFB",
"e	c #C0C4CB",
"f	c #1E283B",
"g	c #60697B",
"h	c #5C6578",
"i	c #485367",
"j	c #777F8E",
"k	c #BDC1C8",
"l	c #263043",
"m	c #5A6476",
"n	c #525C6F",
"o	c #364258",
"p	c #CBCFD4",
"q	c #B9BDC5",
"r	c #2E384B",
"s	c #566073",
"t	c #555F72",
"u	c #465166",
"v	c #354157",
"w	c #F9F9FA",
"x	c #B5B9C2",
"y	c #364053",
"z	c #525C70",
"A	c #3E495F",
"B	c #414B61",
"C	c #B1B6BF",
"D	c #3E485B",
"E	c #576174",
"F	c #515B6F",
"G	c #4C566B",
"H	c #ADB2BC",
"I	c #555E70",
"J	c #586275",
"K	c #5F697C",
"L	c #5E687B",
"M	c #AAAFB9",
"N	c #7E8493",
"O	c #677184",
"P	c #687285",
"Q	c #A3A9B2",
"R	c #697181",
"S	c #5C6679",
"T	c #707A8D",
"U	c #717B8E",
"V	c #B3B7C0",
"W	c #A9AEB8",
"X	c #868D9A",
"Y	c #656D7F",
"Z	c #BEC2CA",
".....................",
"+++++++++++++++++++++",
"@@#$%&&&&&&&&&&&%$#@@",
"*=-;>,''''''''',>;-=*",
")!~{]]]]]]]]]]]]]{~!)",
"^/(_______________(/^",
":<[}}}}}}}}}}}}}}}[<:",
"|1222222222222222221|",
"345555678888876555543",
"90aaaabcd888dcbaaaa09",
"efgggghij888jihggggfe",
"klmmmmmnop8ponmmmmmlk",
"qrssssstuvwvutsssssrq",
"xysssssszABAzssssssyx",
"CDsEEEEEsFGFsEEEEEsDC",
"HIJKKKKKKLLLKKKKKKJIH",
"MNsOPPPPPPPPPPPPPOsNM",
"MQRSPTUUUUUUUUUTPSRQM",
"MVWXYsssssssssssYXWVM",
"MMVZ3|||||||||||3ZVMM",
"MMMMMMMMMMMMMMMMMMMMM"};
