/* XPM */
static char * button_unfocus_max_xpm[] = {
"21 21 84 1",
" 	c None",
".	c #ABAFB8",
"+	c #ACB0B9",
"@	c #AEB2BA",
"#	c #A4A8B1",
"$	c #989CA5",
"%	c #8C929C",
"&	c #888D97",
"*	c #AFB3BC",
"=	c #A5A9B3",
"-	c #90959F",
";	c #ADB0B8",
">	c #C8CBD1",
",	c #D8DADE",
"'	c #DBDDE0",
")	c #B1B5BD",
"!	c #979BA5",
"~	c #AAAEB5",
"{	c #D6D8DD",
"]	c #D7D9DE",
"^	c #B2B6BE",
"/	c #8A8E98",
"(	c #C1C3CA",
"_	c #D2D5D9",
":	c #B4B8C0",
"<	c #818690",
"[	c #CBCDD3",
"}	c #CDCFD5",
"|	c #CCCED4",
"1	c #72747A",
"2	c #686B71",
"3	c #B5B9C1",
"4	c #7F848E",
"5	c #C7CAD0",
"6	c #C6C9CF",
"7	c #66696F",
"8	c #B7BBC2",
"9	c #7C818B",
"0	c #C3C6CD",
"a	c #C1C4CC",
"b	c #777A81",
"c	c #BBBEC6",
"d	c #BBBFC6",
"e	c #B8BCC4",
"f	c #787D87",
"g	c #BFC3CA",
"h	c #BDC1C9",
"i	c #76797F",
"j	c #BDC1C8",
"k	c #BABEC5",
"l	c #757A84",
"m	c #BCBFC7",
"n	c #BABDC6",
"o	c #74787E",
"p	c #727781",
"q	c #B9BDC4",
"r	c #B7BBC3",
"s	c #73777D",
"t	c #6E737D",
"u	c #B5B9C2",
"v	c #72767D",
"w	c #BEC2C9",
"x	c #6B707A",
"y	c #C0C4CB",
"z	c #686D77",
"A	c #797C83",
"B	c #73767D",
"C	c #70757F",
"D	c #A1A5AE",
"E	c #B3B8C0",
"F	c #888C95",
"G	c #848992",
"H	c #B9BDC5",
"I	c #BABEC7",
"J	c #BABEC6",
"K	c #B9BDC6",
"L	c #A8ADB4",
"M	c #747983",
"N	c #848892",
"O	c #A3A8B0",
"P	c #A8ACB4",
"Q	c #868A93",
"R	c #6A707A",
"S	c #5F646E",
".....................",
"+++++++++++++++++++++",
"@@#$%&&&&&&&&&&&%$#@@",
"*=-;>,''''''''',>;-=*",
")!~{]]]]]]]]]]]]]{~!)",
"^/(_______________(/^",
":<[}|12222222221|}[<:",
"345567777777777765543",
"8900abcdddddddcba0098",
"efgghidjjjjjjjdihggfe",
"klmmnonmmmmmmmnonmmlk",
"dpqqrsrqqqqqqqrsrqqpd",
"jtrruvurrrrrrruvurrtj",
"wxrruvurrrrrrruvurrxw",
"yz:ruABBBBBBBBBAur:zy",
"yCDer:E:::::::E:reDCy",
"yFGHIJKKKKKKKKKJIHGFy",
"yLMNOKhhhhhhhhhKONMLy",
"yyPQRSSSSSSSSSSSRQPyy",
"yyyyyyyyyyyyyyyyyyyyy",
"yyyyyyyyyyyyyyyyyyyyy"};
