/* XPM */
static char * button_unfocus_close_xpm[] = {
"21 21 102 2",
"  	c None",
". 	c #ABAFB8",
"+ 	c #ACB0B9",
"@ 	c #AEB2BA",
"# 	c #A4A8B1",
"$ 	c #989CA5",
"% 	c #8C929C",
"& 	c #888D97",
"* 	c #AFB3BC",
"= 	c #A5A9B3",
"- 	c #90959F",
"; 	c #ADB0B8",
"> 	c #C8CBD1",
", 	c #D8DADE",
"' 	c #DBDDE0",
") 	c #B1B5BD",
"! 	c #979BA5",
"~ 	c #AAAEB5",
"{ 	c #D6D8DD",
"] 	c #D7D9DE",
"^ 	c #B2B6BE",
"/ 	c #8A8E98",
"( 	c #C1C3CA",
"_ 	c #D2D5D9",
": 	c #B4B8C0",
"< 	c #818690",
"[ 	c #CBCDD3",
"} 	c #CDCFD5",
"| 	c #CCCED4",
"1 	c #686B71",
"2 	c #7C7E85",
"3 	c #B5B9C1",
"4 	c #7F848E",
"5 	c #C7CAD0",
"6 	c #C6C9CF",
"7 	c #797C82",
"8 	c #66696F",
"9 	c #B7BBC2",
"0 	c #7C818B",
"a 	c #C3C6CD",
"b 	c #C2C5CC",
"c 	c #BEC1C9",
"d 	c #777A80",
"e 	c #65686F",
"f 	c #777A81",
"g 	c #B8BCC4",
"h 	c #787D87",
"i 	c #BFC3CA",
"j 	c #BEC2C9",
"k 	c #BDC1C8",
"l 	c #B8BDC5",
"m 	c #75787F",
"n 	c #64686E",
"o 	c #6F7278",
"p 	c #BABEC5",
"q 	c #757A84",
"r 	c #BCBFC7",
"s 	c #BBBEC6",
"t 	c #B9BDC5",
"u 	c #B5B8C1",
"v 	c #6D7077",
"w 	c #64676D",
"x 	c #BBBFC6",
"y 	c #727781",
"z 	c #B9BDC4",
"A 	c #B8BCC3",
"B 	c #73777D",
"C 	c #63666C",
"D 	c #6C6F76",
"E 	c #6E737D",
"F 	c #B7BBC3",
"G 	c #B6BAC2",
"H 	c #73767D",
"I 	c #62666C",
"J 	c #71757C",
"K 	c #ADB1BB",
"L 	c #6B707A",
"M 	c #B0B4BD",
"N 	c #B2B7BF",
"O 	c #C0C4CB",
"P 	c #686D77",
"Q 	c #B4B8C1",
"R 	c #70757F",
"S 	c #A1A5AE",
"T 	c #B6BBC3",
"U 	c #B2B6BF",
"V 	c #B1B6BF",
"W 	c #B5B9C2",
"X 	c #888C95",
"Y 	c #848992",
"Z 	c #BBBFC7",
"` 	c #BABEC6",
" .	c #A8ADB4",
"..	c #747983",
"+.	c #848892",
"@.	c #A3A8B0",
"#.	c #B9BDC6",
"$.	c #BDC1C9",
"%.	c #A8ACB4",
"&.	c #868A93",
"*.	c #6A707A",
"=.	c #5F646E",
". . . . . . . . . . . . . . . . . . . . . ",
"+ + + + + + + + + + + + + + + + + + + + + ",
"@ @ # $ % & & & & & & & & & & & % $ # @ @ ",
"* = - ; > , ' ' ' ' ' ' ' ' ' , > ; - = * ",
") ! ~ { ] ] ] ] ] ] ] ] ] ] ] ] ] { ~ ! ) ",
"^ / ( _ _ _ _ _ _ _ _ _ _ _ _ _ _ _ ( / ^ ",
": < [ } } | 1 2 | } } } | 2 1 | } } [ < : ",
"3 4 5 5 5 6 7 8 7 6 5 6 7 8 7 6 5 5 5 4 3 ",
"9 0 a a a b c d e f b f e d c b a a a 0 9 ",
"g h i i i j k l m n o n m l k j i i i h g ",
"p q r r r r s t u v w v u t s r r r r q p ",
"x y z z z z z A B C D C B A z z z z z y x ",
"k E F F F F G H I J K J I H G F F F F E k ",
"j L F F F G H I J M N M J I H G F F F L j ",
"O P : F F G I J M Q G Q M J I G F F : P O ",
"O R S g g T U V W F g F W V U T g g S R O ",
"O X Y t Z ` ` ` ` Z Z Z ` ` ` ` Z t Y X O ",
"O  ...+.@.#.$.$.$.$.$.$.$.$.$.#.@.+... .O ",
"O O %.&.*.=.=.=.=.=.=.=.=.=.=.=.*.&.%.O O ",
"O O O O O O O O O O O O O O O O O O O O O ",
"O O O O O O O O O O O O O O O O O O O O O "};
