/* XPM */
static char * button_focus_close_xpm[] = {
"21 21 113 2",
"  	c None",
". 	c #F0F1F2",
"+ 	c #E3E5E8",
"@ 	c #DFE1E4",
"# 	c #B5A9AB",
"$ 	c #7B5A5B",
"% 	c #4C1B1C",
"& 	c #380000",
"* 	c #DBDDE1",
"= 	c #B2A6A9",
"- 	c #5A2D2E",
"; 	c #78302C",
"> 	c #A85A53",
", 	c #C3756D",
"' 	c #C77971",
") 	c #D7DADE",
"! 	c #7D595A",
"~ 	c #792C28",
"{ 	c #C16D66",
"] 	c #C47068",
"^ 	c #D3D6DB",
"/ 	c #551B1C",
"( 	c #A24941",
"_ 	c #BE635A",
": 	c #D0D3D8",
"< 	c #480000",
"[ 	c #B45047",
"} 	c #B85249",
"| 	c #B64E45",
"1 	c #FFFFFF",
"2 	c #F0DAD8",
"3 	c #B74F45",
"4 	c #CCCFD5",
"5 	c #4F0000",
"6 	c #B14339",
"7 	c #AB352A",
"8 	c #EBD0CD",
"9 	c #EED5D3",
"0 	c #AF3F35",
"a 	c #C8CBD2",
"b 	c #570000",
"c 	c #AD382D",
"d 	c #A82B1F",
"e 	c #960000",
"f 	c #E7CCCC",
"g 	c #EDD2D0",
"h 	c #AA3024",
"i 	c #C4C8CE",
"j 	c #5F0000",
"k 	c #A92E22",
"l 	c #A72A1E",
"m 	c #9F1508",
"n 	c #8E0000",
"o 	c #E6CCCC",
"p 	c #F2E0E0",
"q 	c #C0C4CB",
"r 	c #670000",
"s 	c #A42418",
"t 	c #A22013",
"u 	c #990A00",
"v 	c #870000",
"w 	c #EFE0E0",
"x 	c #BDC1C8",
"y 	c #6F0000",
"z 	c #A11C10",
"A 	c #9D1306",
"B 	c #E8CCCC",
"C 	c #EDE0E0",
"D 	c #B9BDC5",
"E 	c #770000",
"F 	c #9F170A",
"G 	c #9D1205",
"H 	c #EACCCC",
"I 	c #E3CCCC",
"J 	c #710000",
"K 	c #B5B9C2",
"L 	c #7F0000",
"M 	c #800000",
"N 	c #8B0000",
"O 	c #B1B6BF",
"P 	c #9F170B",
"Q 	c #A0180B",
"R 	c #9A0900",
"S 	c #820000",
"T 	c #950000",
"U 	c #9C0F01",
"V 	c #ADB2BC",
"W 	c #961F1A",
"X 	c #A1190E",
"Y 	c #A82013",
"Z 	c #A10F01",
"` 	c #920000",
" .	c #900000",
"..	c #9E0600",
"+.	c #A61C0E",
"@.	c #AAAFB9",
"#.	c #A95954",
"$.	c #B0281B",
"%.	c #B1291C",
"&.	c #AF2417",
"*.	c #AB190B",
"=.	c #AC1B0D",
"-.	c #AF2517",
";.	c #B69698",
">.	c #A3362E",
",.	c #A51D10",
"'.	c #B93124",
").	c #BA3225",
"!.	c #B3B7C0",
"~.	c #BC9C9D",
"{.	c #B1615B",
"].	c #A52D22",
"^.	c #BEC2CA",
". . . . . . . . . . . . . . . . . . . . . ",
"+ + + + + + + + + + + + + + + + + + + + + ",
"@ @ # $ % & & & & & & & & & & & % $ # @ @ ",
"* = - ; > , ' ' ' ' ' ' ' ' ' , > ; - = * ",
") ! ~ { ] ] ] ] ] ] ] ] ] ] ] ] ] { ~ ! ) ",
"^ / ( _ _ _ _ _ _ _ _ _ _ _ _ _ _ _ ( / ^ ",
": < [ } } | 1 2 3 } } } 3 2 1 | } } [ < : ",
"4 5 6 6 6 7 8 1 9 0 6 0 9 1 8 7 6 6 6 5 4 ",
"a b c c c d e f 1 g h g 1 f e d c c c b a ",
"i j k k k l m n o 1 p 1 o n m l k k k j i ",
"q r s s s s t u v w 1 w v u t s s s s r q ",
"x y z z z z z A B 1 C 1 B A z z z z z y x ",
"D E F F F F G H 1 I J I 1 H G F F F F E D ",
"K L F F F G H 1 I M N M I 1 H G F F F L K ",
"O v P Q Q R 1 I S T U T S I 1 R Q Q P v O ",
"V W X Y Y Z `  ...+.Y +... .` Z Y Y X W V ",
"@.#.P $.%.&.*.=.-.%.%.%.-.=.*.&.%.$.P #.@.",
"@.;.>.,.%.'.).).).).).).).).).'.%.,.>.;.@.",
"@.!.~.{.].F F F F F F F F F F F ].{.~.!.@.",
"@.@.!.^.a 4 4 4 4 4 4 4 4 4 4 4 a ^.!.@.@.",
"@.@.@.@.@.@.@.@.@.@.@.@.@.@.@.@.@.@.@.@.@."};
