/* XPM */
static char * button_unfocus_min_xpm[] = {
"21 21 75 1",
" 	c None",
".	c #ABAFB8",
"+	c #ACB0B9",
"@	c #AEB2BA",
"#	c #A4A8B1",
"$	c #989CA5",
"%	c #8C929C",
"&	c #888D97",
"*	c #AFB3BC",
"=	c #A5A9B3",
"-	c #90959F",
";	c #ADB0B8",
">	c #C8CBD1",
",	c #D8DADE",
"'	c #DBDDE0",
")	c #B1B5BD",
"!	c #979BA5",
"~	c #AAAEB5",
"{	c #D6D8DD",
"]	c #D7D9DE",
"^	c #B2B6BE",
"/	c #8A8E98",
"(	c #C1C3CA",
"_	c #D2D5D9",
":	c #B4B8C0",
"<	c #818690",
"[	c #CBCDD3",
"}	c #CDCFD5",
"|	c #B5B9C1",
"1	c #7F848E",
"2	c #C7CAD0",
"3	c #B7BBC2",
"4	c #7C818B",
"5	c #C3C6CD",
"6	c #B8BCC4",
"7	c #787D87",
"8	c #BFC3CA",
"9	c #BABEC5",
"0	c #757A84",
"a	c #BCBFC7",
"b	c #BBBFC6",
"c	c #727781",
"d	c #B9BDC4",
"e	c #BDC1C8",
"f	c #6E737D",
"g	c #B7BBC3",
"h	c #BEC2C9",
"i	c #6B707A",
"j	c #B6BAC2",
"k	c #73767D",
"l	c #62666C",
"m	c #C0C4CB",
"n	c #686D77",
"o	c #72757D",
"p	c #70757F",
"q	c #A1A5AE",
"r	c #B2B7C0",
"s	c #AFB4BD",
"t	c #AFB3BD",
"u	c #888C95",
"v	c #848992",
"w	c #B9BDC5",
"x	c #BBBFC7",
"y	c #BABEC6",
"z	c #B8BDC5",
"A	c #A8ADB4",
"B	c #747983",
"C	c #848892",
"D	c #A3A8B0",
"E	c #B9BDC6",
"F	c #BDC1C9",
"G	c #A8ACB4",
"H	c #868A93",
"I	c #6A707A",
"J	c #5F646E",
".....................",
"+++++++++++++++++++++",
"@@#$%&&&&&&&&&&&%$#@@",
"*=-;>,''''''''',>;-=*",
")!~{]]]]]]]]]]]]]{~!)",
"^/(_______________(/^",
":<[}}}}}}}}}}}}}}}[<:",
"|1222222222222222221|",
"345555555555555555543",
"678888888888888888876",
"90aaaaaaaaaaaaaaaaa09",
"bcdddddddddddddddddcb",
"efgggggggggggggggggfe",
"higggjklllllllkjgggih",
"mn:ggjolllllllojgg:nm",
"mpq66grstttttsrg66qpm",
"muvwxyywzzzzzwyyxwvum",
"mABCDEFFFFFFFFFEDCBAm",
"mmGHIJJJJJJJJJJJIHGmm",
"mmmmmmmmmmmmmmmmmmmmm",
"mmmmmmmmmmmmmmmmmmmmm"};
