/* XPM */
static char * button_unfocus_stick_xpm[] = {
"21 21 84 1",
" 	c None",
".	c #ABAFB8",
"+	c #ACB0B9",
"@	c #AEB2BA",
"#	c #A4A8B1",
"$	c #989CA5",
"%	c #8C929C",
"&	c #888D97",
"*	c #AFB3BC",
"=	c #A5A9B3",
"-	c #90959F",
";	c #ADB0B8",
">	c #C8CBD1",
",	c #D8DADE",
"'	c #DBDDE0",
")	c #B1B5BD",
"!	c #979BA5",
"~	c #AAAEB5",
"{	c #D6D8DD",
"]	c #D7D9DE",
"^	c #B2B6BE",
"/	c #8A8E98",
"(	c #C1C3CA",
"_	c #D2D5D9",
":	c #B4B8C0",
"<	c #818690",
"[	c #CBCDD3",
"}	c #CDCFD5",
"|	c #B5B9C1",
"1	c #7F848E",
"2	c #C7CAD0",
"3	c #B7BBC2",
"4	c #7C818B",
"5	c #C3C6CD",
"6	c #C2C5CC",
"7	c #7C7F86",
"8	c #65686F",
"9	c #B8BCC4",
"0	c #787D87",
"a	c #BFC3CA",
"b	c #BEC2C9",
"c	c #B5B9C0",
"d	c #676A70",
"e	c #64686E",
"f	c #BABEC5",
"g	c #757A84",
"h	c #BCBFC7",
"i	c #BBBEC6",
"j	c #B9BCC4",
"k	c #94979F",
"l	c #64676D",
"m	c #BBBFC6",
"n	c #727781",
"o	c #B9BDC4",
"p	c #B8BCC3",
"q	c #73767D",
"r	c #63666C",
"s	c #BDC1C8",
"t	c #6E737D",
"u	c #B7BBC3",
"v	c #A8ADB6",
"w	c #64676E",
"x	c #6B707A",
"y	c #B6BAC2",
"z	c #B3B7C0",
"A	c #A9ADB6",
"B	c #C0C4CB",
"C	c #686D77",
"D	c #70757F",
"E	c #A1A5AE",
"F	c #888C95",
"G	c #848992",
"H	c #B9BDC5",
"I	c #BBBFC7",
"J	c #A8ADB4",
"K	c #747983",
"L	c #848892",
"M	c #A3A8B0",
"N	c #B9BDC6",
"O	c #BDC1C9",
"P	c #A8ACB4",
"Q	c #868A93",
"R	c #6A707A",
"S	c #5F646E",
".....................",
"+++++++++++++++++++++",
"@@#$%&&&&&&&&&&&%$#@@",
"*=-;>,''''''''',>;-=*",
")!~{]]]]]]]]]]]]]{~!)",
"^/(_______________(/^",
":<[}}}}}}}}}}}}}}}[<:",
"|1222222222222222221|",
"345555678888876555543",
"90aaaabcdeeedcbaaaa09",
"fghhhhijklllkjihhhhgf",
"mnooooop:qrq:pooooonm",
"stuuuuuu|vwv|uuuuuuts",
"bxuuuuuuyzAzyuuuuuuxb",
"BC:uuuuuuyyyuuuuuu:CB",
"BDE999999999999999EDB",
"BFGHIIIIIIIIIIIIIHGFB",
"BJKLMNOOOOOOOOONMLKJB",
"BBPQRSSSSSSSSSSSRQPBB",
"BBBBBBBBBBBBBBBBBBBBB",
"BBBBBBBBBBBBBBBBBBBBB"};
