/* XPM */
static char * menu_selected_xpm[] = {
"1 18 17 1",
" 	c None",
".	c #EDEFF2",
"+	c #7F90A0",
"@	c #ECF0F4",
"#	c #D9E2EA",
"$	c #D0DAE5",
"%	c #C7D3DF",
"&	c #BECDDA",
"*	c #B8C8D7",
"=	c #B3C3D3",
"-	c #ABBED0",
";	c #A5BACD",
">	c #A3B8CB",
",	c #AABFD2",
"'	c #B2C7DA",
")	c #BBD0E3",
"!	c #798D9E",
".",
"+",
"@",
"#",
"$",
"%",
"&",
"*",
"=",
"-",
";",
">",
";",
",",
"'",
")",
"!",
"."};
