/* XPM */
static char * window_unfocused_xpm[] = {
"1 21 15 1",
" 	c #ABAFB8",
".	c #ACB0B9",
"+	c #AEB2BA",
"@	c #AFB3BC",
"#	c #B1B5BD",
"$	c #B2B6BE",
"%	c #B4B8C0",
"&	c #B5B9C1",
"*	c #B7BBC2",
"=	c #B8BCC4",
"-	c #BABEC5",
";	c #BBBFC6",
">	c #BDC1C8",
",	c #BEC2C9",
"'	c #C0C4CB",
" ",
".",
"+",
"@",
"#",
"$",
"%",
"&",
"*",
"=",
"-",
";",
">",
",",
"'",
"'",
"'",
"'",
"'",
"'",
"'"};
