/* XPM */
static char * window_focused_xpm[] = {
"1 21 17 1",
" 	c #F0F1F2",
".	c #E3E5E8",
"+	c #DFE1E4",
"@	c #DBDDE1",
"#	c #D7DADE",
"$	c #D3D6DB",
"%	c #D0D3D8",
"&	c #CCCFD5",
"*	c #C8CBD2",
"=	c #C4C8CE",
"-	c #C0C4CB",
";	c #BDC1C8",
">	c #B9BDC5",
",	c #B5B9C2",
"'	c #B1B6BF",
")	c #ADB2BC",
"!	c #AAAFB9",
" ",
".",
"+",
"@",
"#",
"$",
"%",
"&",
"*",
"=",
"-",
";",
">",
",",
"'",
")",
"!",
"!",
"!",
"!",
"!"};
