/* XPM */
static char * close_unfocus_xpm[] = {
"19 19 24 1",
" 	c None",
".	c #F6F6F6",
"+	c #D3D3D3",
"@	c #E4E4E4",
"#	c #D2D2D2",
"$	c #BDBDBD",
"%	c #BFBFBF",
"&	c #E2E2E2",
"*	c #E3E3E3",
"=	c #BBBBBB",
"-	c #D4D4D4",
";	c #E0E0E0",
">	c #BABABA",
",	c #B8B8B8",
"'	c #B6B6B6",
")	c #DFDFDF",
"!	c #B4B4B4",
"~	c #B2B2B2",
"{	c #D0D0D0",
"]	c #CACACA",
"^	c #B0B0B0",
"/	c #DEDEDE",
"(	c #C9C9C9",
"_	c #DFDEDE",
"...................",
"...................",
"...................",
"...................",
"...................",
"......+@...@+......",
".....#$%&.&%$#.....",
".....*$=$-$=$*.....",
"......;>,,,>;......",
".......#'''#.......",
"......)'!!!')......",
".....;!~!{!~!;.....",
".....]^~/./~^].....",
"......(_.../(......",
"...................",
"...................",
"...................",
"...................",
"..................."};
