/* XPM */
static char * close_pressed_xpm[] = {
"19 19 23 1",
" 	c None",
".	c #F6F6F6",
"+	c #DB9999",
"@	c #EFD4D4",
"#	c #DB9899",
"$	c #BF4040",
"%	c #C24B4B",
"&	c #EED4D3",
"*	c #EFD3D4",
"=	c #DB9898",
"-	c #EED3D3",
";	c #E3B0AF",
">	c #EDD3D3",
",	c #EDD2D2",
"'	c #E1AFAF",
")	c #ECD1D2",
"!	c #EDD1D2",
"~	c #EBD1D1",
"{	c #ECD1D1",
"]	c #DA9797",
"^	c #D99797",
"/	c #EBD0D0",
"(	c #DA9796",
"...................",
"...................",
"...................",
"...................",
"...................",
"......+@...@+......",
".....#$%&.*%$=.....",
".....-%$%;%$%-.....",
"......>%$$$%,......",
".......'$$$'.......",
"......)%$$$%!......",
".....~%$%'%$%{.....",
".....]$%~.~%$].....",
"......^/.../(......",
"...................",
"...................",
"...................",
"...................",
"..................."};
