/* XPM */
static char * close_xpm[] = {
"19 19 33 1",
" 	c None",
".	c #F6F6F6",
"+	c #A0A0A0",
"@	c #CACACA",
"#	c #9C9C9D",
"$	c #686868",
"%	c #6D6D6D",
"&	c #C4C4C4",
"*	c #9D9C9C",
"=	c #C7C7C7",
"-	c #636363",
";	c #A1A1A1",
">	c #C1C1C1",
",	c #626262",
"'	c #5D5D5D",
")	c #9C9C9C",
"!	c #585858",
"~	c #BDBDBE",
"{	c #585758",
"]	c #525252",
"^	c #575757",
"/	c #BEBDBE",
"(	c #BFC0C0",
"_	c #4C4C4C",
":	c #979797",
"<	c #C0BFBF",
"[	c #8A8A8A",
"}	c #474747",
"|	c #4D4D4D",
"1	c #BBBBBB",
"2	c #868686",
"3	c #BDBCBC",
"4	c #BCBCBC",
"...................",
"...................",
"...................",
"...................",
"...................",
"......+@...@+......",
".....#$%&.&%$*.....",
".....=$-$;$-$=.....",
"......>,''',>......",
".......)!!!).......",
"......~{]]]^/......",
".....(]_]:]_]<.....",
".....[}|1.1|}[.....",
"......23...42......",
"...................",
"...................",
"...................",
"...................",
"..................."};
