/* XPM */
static char * maximize_pressed_xpm[] = {
"19 19 11 1",
" 	c None",
".	c #F6F6F6",
"+	c #7EA3D3",
"@	c #4077BF",
"#	c #7EA2D3",
"$	c #7EA2D2",
"%	c #5485C5",
"&	c #7EA3D2",
"*	c #7DA2D2",
"=	c #7DA2D1",
"-	c #7DA1D2",
"...................",
"...................",
"...................",
"...................",
"...................",
"........+@+........",
"........+@+........",
"........#@+........",
".....$+$%@%&$+.....",
".....@@@@@@@@@.....",
".....**$%@%*$*.....",
"........*@*........",
"........*@*........",
"........=@-........",
"...................",
"...................",
"...................",
"...................",
"..................."};
