/* XPM */
static char * maximize_xpm[] = {
"19 19 30 1",
" 	c None",
".	c #F6F6F6",
"+	c #8F8F8F",
"@	c #6E6E6E",
"#	c #878887",
"$	c #686868",
"%	c #888788",
"&	c #F4F4F4",
"*	c #828282",
"=	c #636363",
"-	c #838282",
";	c #808080",
">	c #7E7E7E",
",	c #656565",
"'	c #5D5D5D",
")	c #828383",
"!	c #585858",
"~	c #7B7B7B",
"{	c #787878",
"]	c #767676",
"^	c #5C5C5C",
"/	c #525252",
"(	c #F0F0F0",
"_	c #727272",
":	c #4C4C4C",
"<	c #EEEDED",
"[	c #717171",
"}	c #474747",
"|	c #707070",
"1	c #414141",
"...................",
"...................",
"...................",
"...................",
"...................",
"........+@+........",
"........#$%........",
".......&*=*&.......",
".....-;>,',>;).....",
".....!!!!!!!!!.....",
".....~{]^/^]{~.....",
".......(_:_<.......",
"........[}[........",
"........|1|........",
"...................",
"...................",
"...................",
"...................",
"..................."};
