/* XPM */
static char * maximize_unfocus_xpm[] = {
"19 19 27 1",
" 	c None",
".	c #F6F6F6",
"+	c #CCCCCC",
"@	c #BFBFBF",
"#	c #C9CAC9",
"$	c #BDBDBD",
"%	c #CAC9CA",
"&	c #F5F5F5",
"*	c #C7C7C7",
"=	c #BBBBBB",
"-	c #C8C7C7",
";	c #C6C6C6",
">	c #BCBCBC",
",	c #B8B8B8",
"'	c #C7C8C8",
")	c #B6B6B6",
"!	c #C4C4C4",
"~	c #C3C3C3",
"{	c #C2C2C2",
"]	c #B4B4B4",
"^	c #F3F3F3",
"/	c #C1C1C1",
"(	c #B2B2B2",
"_	c #F2F2F2",
":	c #C0C0C0",
"<	c #B0B0B0",
"[	c #ADADAD",
"...................",
"...................",
"...................",
"...................",
"...................",
"........+@+........",
"........#$%........",
".......&*=*&.......",
".....-;;>,>;;'.....",
".....))))))))).....",
".....!~{,],{~!.....",
".......^/(/_.......",
"........:<:........",
"........:[:........",
"...................",
"...................",
"...................",
"...................",
"..................."};
