/* XPM */
static char * minimize_xpm[] = {
"19 19 8 1",
" 	c None",
".	c #F6F6F6",
"+	c #828383",
"@	c #808080",
"#	c #828282",
"$	c #585858",
"%	c #7B7B7B",
"&	c #787878",
"...................",
"...................",
"...................",
"...................",
"...................",
"...................",
"...................",
"...................",
"......+@@@@@#......",
"......$$$$$$$......",
"......%&&&&&%......",
"...................",
"...................",
"...................",
"...................",
"...................",
"...................",
"...................",
"..................."};
