/* XPM */
static char * minimize_pressed_xpm[] = {
"19 19 8 1",
" 	c None",
".	c #F6F6F6",
"+	c #7EA6D3",
"@	c #7EA6D2",
"#	c #407CBF",
"$	c #7DA5D2",
"%	c #7EA5D2",
"&	c #7DA6D2",
"...................",
"...................",
"...................",
"...................",
"...................",
"...................",
"...................",
"...................",
"......+@@++@@......",
"......#######......",
"......$%$&&$%......",
"...................",
"...................",
"...................",
"...................",
"...................",
"...................",
"...................",
"..................."};
