/* XPM */
static char * stick_pressed_xpm[] = {
"19 19 6 1",
" 	c None",
".	c #F6F6F6",
"+	c #A8A8A8",
"@	c #000000",
"#	c #A6A6A6",
"$	c #525252",
"...................",
"...................",
"...................",
"...................",
"...................",
".......+@@@+.......",
"........@@@........",
"........@@@........",
"........@@@........",
".......#@@@#.......",
".......@@@@@.......",
".........@.........",
".........@.........",
".........$.........",
"...................",
"...................",
"...................",
"...................",
"..................."};
