/* XPM */
static char * stick_xpm[] = {
"19 19 27 1",
" 	c None",
".	c #F6F6F6",
"+	c #F5F5F5",
"@	c #F4F3F4",
"#	c #BBBBBB",
"$	c #6E6E6E",
"%	c #BCBCBB",
"&	c #EEEEEE",
"*	c #686868",
"=	c #ECECED",
"-	c #F2F2F2",
";	c #636363",
">	c #E8E8E8",
",	c #5D5D5D",
"'	c #E8E9E8",
")	c #ABABAC",
"!	c #585858",
"~	c #ABACAC",
"{	c #525252",
"]	c #DFDFDE",
"^	c #4C4C4C",
"/	c #DFDEDF",
"(	c #F1F0F0",
"_	c #ECECEC",
":	c #474747",
"<	c #F3F4F3",
"[	c #717171",
"...................",
"...................",
"...................",
"...................",
"........+@+........",
".......#$$$%.......",
".......&***=.......",
".......-;;;-.......",
".......>,,,'.......",
".......)!!!~.......",
"......+{{{{{+......",
".......-]^/(.......",
"........_:_........",
"........<[@........",
"...................",
"...................",
"...................",
"...................",
"..................."};
