/* XPM */
static char * stick_unfocus_xpm[] = {
"19 19 21 1",
" 	c None",
".	c #F6F6F6",
"+	c #F5F5F5",
"@	c #F5F4F5",
"#	c #DEDEDE",
"$	c #BFBFBF",
"%	c #F2F2F2",
"&	c #BDBDBD",
"*	c #F4F4F4",
"=	c #BBBBBB",
"-	c #F0F0F0",
";	c #B8B8B8",
">	c #D8D8D8",
",	c #B6B6B6",
"'	c #B4B4B4",
")	c #ECECEC",
"!	c #B2B2B2",
"~	c #F4F3F3",
"{	c #B0B0B0",
"]	c #F4F5F4",
"^	c #C0C0C0",
"...................",
"...................",
"...................",
"...................",
"........+@+........",
".......#$$$#.......",
".......%&&&%.......",
".......*===*.......",
".......-;;;-.......",
".......>,,,>.......",
"......+'''''+......",
".......*)!)~.......",
"........%{%........",
"........]^@........",
"...................",
"...................",
"...................",
"...................",
"..................."};
