/* XPM */
static char * stuck_xpm[] = {
"19 19 50 1",
" 	c None",
".	c #F6F6F6",
"+	c #6E6E6E",
"@	c #F4F4F4",
"#	c #6A6A6A",
"$	c #868686",
"%	c #E5E5E5",
"&	c #EEEFEE",
"*	c #F3F3F3",
"=	c #656565",
"-	c #EDEEED",
";	c #FAFBFB",
">	c #EEEDEE",
",	c #606060",
"'	c #EDECED",
")	c #FBFBFA",
"!	c #EDEDED",
"~	c #F2F2F2",
"{	c #5C5C5C",
"]	c #EEEEED",
"^	c #FAFAFB",
"/	c #EDEEEE",
"(	c #585858",
"_	c #7D7D7E",
":	c #F1F0F1",
"<	c #FAFAFA",
"[	c #F1F1F1",
"}	c #7D7E7E",
"|	c #F0F0F0",
"1	c #535353",
"2	c #DAD9DA",
"3	c #EBEBEB",
"4	c #F4F5F4",
"5	c #EBECEC",
"6	c #D9D9D9",
"7	c #EEEEEE",
"8	c #4F4F4F",
"9	c #E1E1E1",
"0	c #4A4A4A",
"a	c #D8D8D8",
"b	c #ECECEB",
"c	c #454545",
"d	c #9A9B9B",
"e	c #ECEBEC",
"f	c #414141",
"g	c #E8E8E9",
"h	c #E8E9E9",
"i	c #E8E8E8",
"j	c #E8E9E8",
"k	c #E9E8E9",
"...................",
"...................",
"...................",
"...................",
".....+++++++++.....",
"....@##$%&%$##@....",
"....*===-;>===*....",
"....*,,,')!,,,*....",
"....~{{{]^/{{{~....",
"....~((_:<[}((|....",
"....|112345611|....",
"....78888988887....",
"....70000a00007....",
"....bccccdcccce....",
"....|fffffffff|....",
".....7ghijkki7.....",
"...................",
"...................",
"..................."};
