/* XPM */
static char * stuck_unfocus_xpm[] = {
"19 19 35 1",
" 	c None",
".	c #F6F6F6",
"+	c #BFBFBF",
"@	c #F5F5F5",
"#	c #BEBEBE",
"$	c #C9C9C9",
"%	c #EFEFEF",
"&	c #F2F3F2",
"*	c #F4F4F4",
"=	c #BCBCBC",
"-	c #F2F2F2",
";	c #F7F8F8",
">	c #BABABA",
",	c #F8F8F7",
"'	c #B8B8B8",
")	c #F7F7F8",
"!	c #B6B6B6",
"~	c #C5C5C6",
"{	c #F4F3F4",
"]	c #F7F7F7",
"^	c #C5C6C6",
"/	c #F3F3F3",
"(	c #B4B4B4",
"_	c #EAEAEA",
":	c #F1F1F1",
"<	c #F1F2F2",
"[	c #B3B3B3",
"}	c #EDEDED",
"|	c #B1B1B1",
"1	c #F2F2F1",
"2	c #AFAFAF",
"3	c #D1D1D1",
"4	c #F2F1F2",
"5	c #ADADAD",
"6	c #F0F0F0",
"...................",
"...................",
"...................",
"...................",
".....+++++++++.....",
"....@##$%&%$##@....",
"....*===-;-===*....",
"....*>>>-,->>>*....",
"....*'''-)-'''*....",
"....*!!~{]*^!!/....",
"..../((_:@<_((/....",
"....-[[[[}[[[[-....",
"....-||||_||||-....",
"....12222322224....",
"..../555555555/....",
".....-6666666-.....",
"...................",
"...................",
"..................."};
