/* XPM */
static char * stuck_pressed_xpm[] = {
"19 19 6 1",
" 	c None",
".	c #F6F6F6",
"+	c #000000",
"@	c #545454",
"#	c #535353",
"$	c #A4A5A5",
"...................",
"...................",
"...................",
"...................",
".....+++++++++.....",
".....++@...@++.....",
".....+++...+++.....",
".....+++...+++.....",
".....+++...+++.....",
".....++#...#++.....",
".....++.....++.....",
".....++++.++++.....",
".....++++.++++.....",
".....++++$++++.....",
".....+++++++++.....",
"...................",
"...................",
"...................",
"..................."};
