/* XPM */
static char * closefcs_xpm[] = {
"27 27 368 2",
"  	c None",
". 	c #636560",
"+ 	c #646661",
"@ 	c #646560",
"# 	c #535854",
"$ 	c #535955",
"% 	c #525854",
"& 	c #535852",
"* 	c #535851",
"= 	c #525952",
"- 	c #545953",
"; 	c #525951",
"> 	c #555851",
", 	c #565952",
"' 	c #565751",
") 	c #55544F",
"! 	c #54554F",
"~ 	c #58534D",
"{ 	c #5A534B",
"] 	c #5A5349",
"^ 	c #57544D",
"/ 	c #5B5249",
"( 	c #555450",
"_ 	c #57544F",
": 	c #53564F",
"< 	c #4E584F",
"[ 	c #56514B",
"} 	c #56514D",
"| 	c #58514B",
"1 	c #565249",
"2 	c #55524B",
"3 	c #52514C",
"4 	c #53524E",
"5 	c #56534E",
"6 	c #58504D",
"7 	c #55524D",
"8 	c #55514E",
"9 	c #56514E",
"0 	c #58504E",
"a 	c #50534C",
"b 	c #4F544D",
"c 	c #373632",
"d 	c #393631",
"e 	c #333834",
"f 	c #313A37",
"g 	c #313C38",
"h 	c #343D3A",
"i 	c #373B3A",
"j 	c #3A3C3B",
"k 	c #393B3A",
"l 	c #363C3C",
"m 	c #37403F",
"n 	c #464C4A",
"o 	c #4E504D",
"p 	c #504F4A",
"q 	c #524F4A",
"r 	c #51504B",
"s 	c #504F4B",
"t 	c #53504B",
"u 	c #534E4A",
"v 	c #524E4B",
"w 	c #4D4F4A",
"x 	c #4F504B",
"y 	c #3A3C39",
"z 	c #3B3C37",
"A 	c #383D39",
"B 	c #373D3B",
"C 	c #383C3B",
"D 	c #3B3A36",
"E 	c #403730",
"F 	c #44362D",
"G 	c #46342A",
"H 	c #46352D",
"I 	c #413632",
"J 	c #3C413D",
"K 	c #4A4C47",
"L 	c #4D4E48",
"M 	c #4C4E49",
"N 	c #4D4E49",
"O 	c #4E4D49",
"P 	c #4C4F48",
"Q 	c #4E4D48",
"R 	c #504C49",
"S 	c #3B3B39",
"T 	c #403933",
"U 	c #4D3125",
"V 	c #8F5C49",
"W 	c #BB7B62",
"X 	c #D28F74",
"Y 	c #E19E83",
"Z 	c #D28F75",
"` 	c #403931",
" .	c #3B3D3A",
"..	c #484A45",
"+.	c #4C4B46",
"@.	c #4A4D46",
"#.	c #4C4B47",
"$.	c #4B4C46",
"%.	c #4E4A47",
"&.	c #484D46",
"*.	c #3E3B36",
"=.	c #3C3B37",
"-.	c #3E3935",
";.	c #5D4237",
">.	c #C98B74",
",.	c #F5916F",
"'.	c #FF8B61",
").	c #FF8A5F",
"!.	c #FB8A62",
"~.	c #FE8A61",
"{.	c #FF8C63",
"].	c #F4926F",
"^.	c #5B4339",
"/.	c #3B3A38",
"(.	c #3C3C3A",
"_.	c #4C4743",
":.	c #494843",
"<.	c #4C4744",
"[.	c #4C4845",
"}.	c #4B4843",
"|.	c #4B4744",
"1.	c #454A44",
"2.	c #454A43",
"3.	c #333E3A",
"4.	c #684130",
"5.	c #E88A68",
"6.	c #FF845A",
"7.	c #F97F50",
"8.	c #F58054",
"9.	c #F28157",
"0.	c #EF835C",
"a.	c #EE825B",
"b.	c #FD7D4C",
"c.	c #FD8457",
"d.	c #E28D6E",
"e.	c #654030",
"f.	c #3C3934",
"g.	c #394241",
"h.	c #474642",
"i.	c #464742",
"j.	c #4A4542",
"k.	c #494542",
"l.	c #454742",
"m.	c #454841",
"n.	c #47352B",
"o.	c #C38266",
"p.	c #EE7D51",
"q.	c #EF7546",
"r.	c #E8794E",
"s.	c #E8794C",
"t.	c #F37543",
"u.	c #F9733E",
"v.	c #F07645",
"w.	c #E9794B",
"x.	c #EF7647",
"y.	c #EB8056",
"z.	c #C47E64",
"A.	c #4B3327",
"B.	c #373D39",
"C.	c #45443F",
"D.	c #474340",
"E.	c #454440",
"F.	c #444540",
"G.	c #484340",
"H.	c #434540",
"I.	c #43463F",
"J.	c #8D533D",
"K.	c #E17E55",
"L.	c #F16A33",
"M.	c #EA6E3B",
"N.	c #C86840",
"O.	c #BC5C34",
"P.	c #EA6E3A",
"Q.	c #F66A2D",
"R.	c #BE5E36",
"S.	c #C5653D",
"T.	c #E86E3B",
"U.	c #F26B34",
"V.	c #E77C50",
"W.	c #84543D",
"X.	c #3B3A35",
"Y.	c #42433D",
"Z.	c #45423D",
"`.	c #43423E",
" +	c #43423D",
".+	c #45413E",
"++	c #41433E",
"@+	c #41443D",
"#+	c #3A3935",
"$+	c #C46A47",
"%+	c #E96F3C",
"&+	c #F66629",
"*+	c #EB6A33",
"=+	c #6C1C00",
"-+	c #B65A31",
";+	c #DA6F41",
">+	c #BD5C32",
",+	c #6F1C00",
"'+	c #B55B36",
")+	c #E96C36",
"!+	c #FC6423",
"~+	c #F06D37",
"{+	c #B37053",
"]+	c #43362E",
"^+	c #3F403A",
"/+	c #423E3B",
"(+	c #403F3B",
"_+	c #3F403B",
":+	c #3E403B",
"<+	c #3E413A",
"[+	c #393834",
"}+	c #E47142",
"|+	c #E56935",
"1+	c #EB642A",
"2+	c #EC642A",
"3+	c #E77344",
"4+	c #C57250",
"5+	c #5A2106",
"6+	c #874F36",
"7+	c #641F02",
"8+	c #C36F4D",
"9+	c #DD764B",
"0+	c #E8662C",
"a+	c #F8601F",
"b+	c #ED662E",
"c+	c #C77B5B",
"d+	c #4A3228",
"e+	c #3D3E39",
"f+	c #3E3D39",
"g+	c #403C39",
"h+	c #3C3E39",
"i+	c #F2713A",
"j+	c #DD6531",
"k+	c #DE6530",
"l+	c #EB6025",
"m+	c #E96127",
"n+	c #D6754B",
"o+	c #91614D",
"p+	c #431F11",
"q+	c #9B5B42",
"r+	c #DB6533",
"s+	c #E76227",
"t+	c #F05F20",
"u+	c #E8632B",
"v+	c #CB7B58",
"w+	c #4D2F24",
"x+	c #3E3A37",
"y+	c #3A3C37",
"z+	c #E86632",
"A+	c #DC632E",
"B+	c #DE6129",
"C+	c #E85E20",
"D+	c #E45F26",
"E+	c #B65329",
"F+	c #612108",
"G+	c #945B47",
"H+	c #691C00",
"I+	c #B45127",
"J+	c #D66432",
"K+	c #E26024",
"L+	c #F05B19",
"M+	c #E75F25",
"N+	c #C3704E",
"O+	c #C05930",
"P+	c #DF6127",
"Q+	c #EB5813",
"R+	c #E45A1C",
"S+	c #BA4F21",
"T+	c #701A00",
"U+	c #BF6946",
"V+	c #D57751",
"W+	c #C86C47",
"X+	c #6E1A00",
"Y+	c #B15025",
"Z+	c #E05C1E",
"`+	c #F3550E",
" @	c #E85D22",
".@	c #AA6141",
"+@	c #44352E",
"@@	c #3A3D36",
"#@	c #804630",
"$@	c #D8632D",
"%@	c #F55205",
"&@	c #E65715",
"*@	c #BD5B34",
"=@	c #BD6A48",
"-@	c #D86A39",
";@	c #D95A23",
">@	c #D4693D",
",@	c #C06C4A",
"'@	c #BD5B2E",
")@	c #E55715",
"!@	c #F1530A",
"~@	c #DB622B",
"{@	c #7A4630",
"]@	c #3A3A3A",
"^@	c #3C3B39",
"/@	c #45342C",
"(@	c #B25D34",
"_@	c #EA5711",
":@	c #E7530D",
"<@	c #D96029",
"[@	c #DA652F",
"}@	c #E05512",
"|@	c #E7530B",
"1@	c #DB5719",
"2@	c #D9642E",
"3@	c #E15F21",
"4@	c #DF5B1B",
"5@	c #A6542E",
"6@	c #4D3227",
"7@	c #353D3F",
"8@	c #373B3C",
"9@	c #613824",
"0@	c #BE5D30",
"a@	c #DD5718",
"b@	c #E45008",
"c@	c #EB4E00",
"d@	c #EE4D00",
"e@	c #ED4E00",
"f@	c #EA4E01",
"g@	c #E94D00",
"h@	c #DD5817",
"i@	c #B56037",
"j@	c #583726",
"k@	c #3D3A35",
"l@	c #3D3C38",
"m@	c #5C3623",
"n@	c #A34F23",
"o@	c #D85716",
"p@	c #E65004",
"q@	c #E35003",
"r@	c #DE5006",
"s@	c #E25003",
"t@	c #E65003",
"u@	c #D85715",
"v@	c #A54E23",
"w@	c #593623",
"x@	c #3D3936",
"y@	c #3C3B36",
"z@	c #3B3C36",
"A@	c #4C3223",
"B@	c #793C1D",
"C@	c #A24E22",
"D@	c #B65727",
"E@	c #BD5C29",
"F@	c #B75725",
"G@	c #A14E22",
"H@	c #763D1F",
"I@	c #4D3324",
"J@	c #3F3A36",
"K@	c #373D3D",
"L@	c #51301F",
"M@	c #582E18",
"N@	c #53301D",
"O@	c #46352B",
"P@	c #343E40",
"Q@	c #373C3F",
"R@	c #353E3D",
"S@	c #3A3A38",
"T@	c #413A34",
"U@	c #423930",
"V@	c #3E3B34",
"W@	c #343E3F",
"X@	c #433930",
"Y@	c #3F3A34",
"Z@	c #3F3B38",
"`@	c #3F3A37",
". . . . . . . . . . . + + . @ @ . . . . . . . . @ @ @ ",
"# $ % % & & & & * * * * & = & - * - = ; > , ; ' ' ' ' ",
") ! ) ~ { ] ] ^ ^ ^ { / { ^ ) ( ) _ ! ! _ _ : < ) ' ' ",
"[ [ } | [ 1 2 3 4 4 5 [ | | } } } 6 7 8 9 0 } a b ' ' ",
"c d c e f g h i j k l m n o p q q r q s p t u v w x x ",
"y z A B C D E F G H I D A J K L L M N O P P Q R L P P ",
"z S z T U V W X Y Z W V U `  ...+.@.#.#.$.@.+.%.K &.&.",
"*.=.-.;.>.,.'.).!.~.{.].>.^./.(._.:._.<.[.}.<.|.1.2.2.",
"=.3.4.5.6.7.8.9.0.a.8.b.c.d.e.f.g.h.h.h.i.h.j.k.l.m.m.",
"=.n.o.p.q.r.s.t.u.v.s.w.x.y.z.A.B.C.D.E.F.C.G.D.H.I.I.",
"=.J.K.L.M.N.O.P.Q.P.R.S.T.U.V.W.X.Y.Z.`.Y. +Z..+++@+@+",
"#+$+%+&+*+O.=+-+;+>+,+'+)+!+~+{+]+^+/+(+_+^+/+/+:+<+<+",
"[+}+|+1+2+3+4+5+6+7+8+9+0+a+b+c+d+e+f+f+e+e+g+g+h+h+h+",
"[+i+j+k+l+m+n+o+p+q+n+r+s+t+u+v+w+z =.x+z z x+x+y+y+y+",
"[+z+A+B+C+D+E+F+G+H+I+J+K+L+M+N+U z =.x+z z x+x+y+y+y+",
"#+O+P+Q+R+S+T+U+V+W+X+Y+Z+`+ @.@+@z =.x+z z x+x+y+@@@@",
"/.#@$@%@&@*@=@-@;@>@,@'@)@!@~@{@]@z x+x+z z x+x+y+y+y+",
"^@/@(@_@:@<@[@}@|@1@2@3@:@4@5@6@7@z x+x+z z x+x+y+y+y+",
"=.8@9@0@a@b@c@d@e@f@c@g@h@i@j@k@C z =.x+z z x+x+y+y+y+",
"l@C T m@n@o@p@q@r@s@t@u@v@w@x@C y@z@=.=.z z x+x+y+y+y+",
"=.=.C D A@B@C@D@E@F@G@H@I@x@C S J@z@=.=.z z x+x+y+@@@@",
"=.J@S K@7@]@H L@M@N@O@k P@K@=.*.x+z@=.=.z z x+x+y+@@@@",
"=.x+x+S K@P@7@S J@^@Q@P@R@S@y@x+=.z =.=.z z x+x+y+@@@@",
"=.S =.T@U@U@V@B W@K@*.X@X@Y@z z =.=.=.^@z z x+x+y+y+y+",
"=.=.=.=.=.=.=.=.=.=.=.=.=.=.=.=.=.z x+Z@=.=.`@x+y+@@@@",
"=.=.=.=.=.=.=.=.=.=.=.=.=.=.=.=.=.z@=.=.z z x+x+y+y+y+",
"=.=.=.=.=.=.=.=.=.=.=.=.=.=.=.=.=.=.=.=.=.=.=.=.=.=.=."};
