/* XPM */
static char * closeufcs_xpm[] = {
"27 27 194 2",
"  	c None",
". 	c #636560",
"+ 	c #646661",
"@ 	c #646560",
"# 	c #535854",
"$ 	c #535955",
"% 	c #525854",
"& 	c #535852",
"* 	c #535851",
"= 	c #525952",
"- 	c #545953",
"; 	c #525951",
"> 	c #555851",
", 	c #565952",
"' 	c #565751",
") 	c #55544F",
"! 	c #54554F",
"~ 	c #58534D",
"{ 	c #5A534B",
"] 	c #5A5349",
"^ 	c #57544D",
"/ 	c #5B5249",
"( 	c #555450",
"_ 	c #57544F",
": 	c #53564F",
"< 	c #4E584F",
"[ 	c #56514B",
"} 	c #56514D",
"| 	c #58514B",
"1 	c #565249",
"2 	c #55524B",
"3 	c #52514C",
"4 	c #53524E",
"5 	c #56534E",
"6 	c #58504D",
"7 	c #55524D",
"8 	c #55514E",
"9 	c #56514E",
"0 	c #58504E",
"a 	c #50534C",
"b 	c #4F544D",
"c 	c #373632",
"d 	c #393631",
"e 	c #333834",
"f 	c #313A37",
"g 	c #313C38",
"h 	c #343D3A",
"i 	c #373B3A",
"j 	c #3A3C3B",
"k 	c #393B3A",
"l 	c #363C3C",
"m 	c #37403F",
"n 	c #464C4A",
"o 	c #4E504D",
"p 	c #504F4A",
"q 	c #524F4A",
"r 	c #51504B",
"s 	c #504F4B",
"t 	c #53504B",
"u 	c #534E4A",
"v 	c #524E4B",
"w 	c #4D4F4A",
"x 	c #4F504B",
"y 	c #3A3C39",
"z 	c #3B3C37",
"A 	c #3B3C36",
"B 	c #3A3B35",
"C 	c #3D3E38",
"D 	c #41423D",
"E 	c #454440",
"F 	c #44433F",
"G 	c #4C4E49",
"H 	c #4D4E49",
"I 	c #4E4D49",
"J 	c #4C4F48",
"K 	c #4E4D48",
"L 	c #504C49",
"M 	c #4D4E48",
"N 	c #3D3C38",
"O 	c #3C3B37",
"P 	c #3E3A37",
"Q 	c #494542",
"R 	c #514D4A",
"S 	c #575350",
"T 	c #5D5956",
"U 	c #585550",
"V 	c #474641",
"W 	c #3C3B36",
"X 	c #45413E",
"Y 	c #4A4D46",
"Z 	c #4C4B47",
"` 	c #4B4C46",
" .	c #4C4B46",
"..	c #4E4A47",
"+.	c #4A4C47",
"@.	c #484D46",
"#.	c #3E3B36",
"$.	c #423E3B",
"%.	c #5E5B56",
"&.	c #565550",
"*.	c #403F3B",
"=.	c #3E3A39",
"-.	c #44403D",
";.	c #494843",
">.	c #4C4743",
",.	c #4C4744",
"'.	c #4C4845",
").	c #4B4843",
"!.	c #4B4744",
"~.	c #454A44",
"{.	c #454A43",
"].	c #3F403B",
"^.	c #595A54",
"/.	c #5B5C56",
"(.	c #5C5C54",
"_.	c #5C5B56",
":.	c #5B5C54",
"<.	c #3E3D39",
"[.	c #474642",
"}.	c #464742",
"|.	c #4A4542",
"1.	c #454742",
"2.	c #454841",
"3.	c #575651",
"4.	c #5D5C57",
"5.	c #5E5E56",
"6.	c #45443F",
"7.	c #474340",
"8.	c #444540",
"9.	c #484340",
"0.	c #434540",
"a.	c #43463F",
"b.	c #484742",
"c.	c #4F4E49",
"d.	c #54544C",
"e.	c #42433D",
"f.	c #45423D",
"g.	c #43423E",
"h.	c #43423D",
"i.	c #41433E",
"j.	c #41443D",
"k.	c #3A3935",
"l.	c #2A2924",
"m.	c #2C2B26",
"n.	c #4D4C47",
"o.	c #3F403A",
"p.	c #3E403B",
"q.	c #3E413A",
"r.	c #393834",
"s.	c #5B5A55",
"t.	c #2B2A26",
"u.	c #464541",
"v.	c #2C2B27",
"w.	c #3D3E39",
"x.	c #403C39",
"y.	c #3C3E39",
"z.	c #5F5E59",
"A.	c #282723",
"B.	c #5C5B57",
"C.	c #5E5D59",
"D.	c #3A3C37",
"E.	c #42413D",
"F.	c #4F4E4A",
"G.	c #2B2A25",
"H.	c #3A3D36",
"I.	c #3B3A38",
"J.	c #4A4944",
"K.	c #605F5A",
"L.	c #53524D",
"M.	c #3C3B39",
"N.	c #5A5954",
"O.	c #5E5D58",
"P.	c #3B3A36",
"Q.	c #42413C",
"R.	c #403F3A",
"S.	c #585752",
"T.	c #62615C",
"U.	c #3B3B39",
"V.	c #373D3D",
"W.	c #343E40",
"X.	c #353D3F",
"Y.	c #3F3A36",
"Z.	c #373C3F",
"`.	c #353E3D",
" +	c #3A3A38",
".+	c #413A34",
"++	c #423930",
"@+	c #3E3B34",
"#+	c #373D3B",
"$+	c #343E3F",
"%+	c #433930",
"&+	c #3F3A34",
"*+	c #3F3B38",
"=+	c #3F3A37",
". . . . . . . . . . . + + . @ @ . . . . . . . . @ @ @ ",
"# $ % % & & & & * * * * & = & - * - = ; > , ; ' ' ' ' ",
") ! ) ~ { ] ] ^ ^ ^ { / { ^ ) ( ) _ ! ! _ _ : < ) ' ' ",
"[ [ } | [ 1 2 3 4 4 5 [ | | } } } 6 7 8 9 0 } a b ' ' ",
"c d c e f g h i j k l m n o p q q r q s p t u v w x x ",
"y z z z z A A A A A A B A C D E F G H I J J K L M J J ",
"z N O P P Q R S T U q V W O P X X Y Z Z ` Y  ...+.@.@.",
"#.P P $.U %.%.%.%.%.%.%.&.*.P =.-.;.>.,.'.).,.!.~.{.{.",
"O O ].^./.(.(._._.(.(.:.:.^.*.O <.[.[.[.}.[.|.Q 1.2.2.",
"O W 3.4._._._._._._._.(.(.5.3.W W 6.7.E 8.6.9.7.0.a.a.",
"O b.4._._.) c._._._.p d.(.(.4.b.O e.f.g.e.h.f.X i.j.j.",
"k.) 4._._.K l.c._.p m.n.4._.4.) O o.$.*.].o.$.$.p.q.q.",
"r.s._._._._.K t.u.v.n._._._._.s.O w.<.<.w.w.x.x.y.y.y.",
"r.z.4._._._._.F A.g.B._.4._._.C.O z O P z z P P D.D.D.",
"r._._._._._.p m.E.t.F._._._._.B.O z O P z z P P D.D.D.",
"k.&.4._.s.p m.K _.c.G.K _._.4.&.O z O P z z P P D.H.H.",
"I.J.K._._.L.K _._._.c.L._._.z.b.O z P P z z P P D.D.D.",
"M.O N.O.s._._._._._._.s._.z.&.P.O z P P z z P P D.D.D.",
"O O Q.O.z._._._._._._._.z.O.R.O P.z O P z z P P D.D.D.",
"N I.O R.&.K.O._._._.O.K.&.R.W O O A O O z z P P D.D.D.",
"O O O O O ;.S.z.T.z.S.;.W W N O O A O O z z P P D.H.H.",
"O O O O O O W W O O O O P.O O O O A O O z z P P D.H.H.",
"O P P U.V.W.X.U.Y.M.Z.W.`. +W P O z O O z z P P D.H.H.",
"O U.O .+++++@+#+$+V.#.%+%+&+z z O O O M.z z P P D.D.D.",
"O O O O O O O O O O O O O O O O O z P *+O O =+P D.H.H.",
"O O O O O O O O O O O O O O O O O A O O z z P P D.D.D.",
"O O O O O O O O O O O O O O O O O O O O O O O O O O O "};
