/* XPM */
static char * closepressed_xpm[] = {
"27 27 184 2",
"  	c None",
". 	c #636560",
"+ 	c #646661",
"@ 	c #646560",
"# 	c #535854",
"$ 	c #535955",
"% 	c #525854",
"& 	c #535852",
"* 	c #535851",
"= 	c #525952",
"- 	c #545953",
"; 	c #525951",
"> 	c #555851",
", 	c #565952",
"' 	c #565751",
") 	c #55544F",
"! 	c #54554F",
"~ 	c #58534D",
"{ 	c #5A534B",
"] 	c #5A5349",
"^ 	c #57544D",
"/ 	c #5B5249",
"( 	c #555450",
"_ 	c #57544F",
": 	c #53564F",
"< 	c #4E584F",
"[ 	c #53524D",
"} 	c #55524D",
"| 	c #55514E",
"1 	c #56514E",
"2 	c #58504E",
"3 	c #56514D",
"4 	c #50534C",
"5 	c #4F544D",
"6 	c #363632",
"7 	c #373733",
"8 	c #393934",
"9 	c #3A3A36",
"0 	c #3C3B37",
"a 	c #3D3C38",
"b 	c #3C3B38",
"c 	c #3B3A36",
"d 	c #3F3D39",
"e 	c #4B4B46",
"f 	c #504F4B",
"g 	c #524F4A",
"h 	c #504F4A",
"i 	c #53504B",
"j 	c #534E4A",
"k 	c #524E4B",
"l 	c #4D4F4A",
"m 	c #4F504B",
"n 	c #3E3D39",
"o 	c #3F3E3A",
"p 	c #403F3B",
"q 	c #40403A",
"r 	c #4C4B46",
"s 	c #4E4D48",
"t 	c #4D4E49",
"u 	c #4E4D49",
"v 	c #4C4F48",
"w 	c #504C49",
"x 	c #4D4E48",
"y 	c #774C39",
"z 	c #A5593A",
"A 	c #C8643B",
"B 	c #EA6F3B",
"C 	c #4A4944",
"D 	c #4C4B47",
"E 	c #4B4C46",
"F 	c #4A4D46",
"G 	c #4E4A47",
"H 	c #4A4C47",
"I 	c #484D46",
"J 	c #514137",
"K 	c #CA653B",
"L 	c #EE703B",
"M 	c #3E3C39",
"N 	c #4A4844",
"O 	c #4C4743",
"P 	c #4C4744",
"Q 	c #4C4845",
"R 	c #4B4843",
"S 	c #4B4744",
"T 	c #454A44",
"U 	c #454A43",
"V 	c #534137",
"W 	c #DF6C3C",
"X 	c #EE703C",
"Y 	c #413F3C",
"Z 	c #474642",
"` 	c #464742",
" .	c #4A4542",
"..	c #494542",
"+.	c #454742",
"@.	c #454841",
"#.	c #3E3C37",
"$.	c #CA663C",
"%.	c #EE713C",
"&.	c #3C3C37",
"*.	c #454440",
"=.	c #474340",
"-.	c #444540",
";.	c #45443F",
">.	c #484340",
",.	c #434540",
"'.	c #43463F",
").	c #794E3A",
"!.	c #D76536",
"~.	c #C35C32",
"{.	c #C75E32",
"].	c #D36335",
"^.	c #43423D",
"/.	c #45423D",
"(.	c #43423E",
"_.	c #42433D",
":.	c #45413E",
"<.	c #41433E",
"[.	c #41443D",
"}.	c #BA613D",
"|.	c #C15B31",
"1.	c #4C2615",
"2.	c #4E2616",
"3.	c #BD5930",
"4.	c #423E3B",
"5.	c #3F403B",
"6.	c #3F403A",
"7.	c #3E403B",
"8.	c #3E413A",
"9.	c #DF6D3E",
"0.	c #A24D2A",
"a.	c #DD6C3E",
"b.	c #3D3E39",
"c.	c #403C39",
"d.	c #3C3E39",
"e.	c #EE7340",
"f.	c #A04C29",
"g.	c #402013",
"h.	c #9C4A28",
"i.	c #EA7140",
"j.	c #3E3A37",
"k.	c #3B3C37",
"l.	c #3A3C37",
"m.	c #DF6E3F",
"n.	c #9A4928",
"o.	c #DD6D3F",
"p.	c #BB633E",
"q.	c #3A3D36",
"r.	c #7E503B",
"s.	c #EE723E",
"t.	c #D16234",
"u.	c #BF5A31",
"v.	c #CF6134",
"w.	c #7A4F3B",
"x.	c #CD6A40",
"y.	c #B6623F",
"z.	c #564339",
"A.	c #DD6E42",
"B.	c #4E4138",
"C.	c #4C4039",
"D.	c #B66240",
"E.	c #ED7341",
"F.	c #EE713D",
"G.	c #B5613F",
"H.	c #4B3E35",
"I.	c #794E3B",
"J.	c #BB6440",
"K.	c #DF7043",
"L.	c #ED7443",
"M.	c #3F3A36",
"N.	c #3B3B39",
"O.	c #413A34",
"P.	c #423930",
"Q.	c #3E3B34",
"R.	c #373D3B",
"S.	c #343E3F",
"T.	c #373D3D",
"U.	c #3E3B36",
"V.	c #433930",
"W.	c #3F3A34",
"X.	c #3C3B39",
"Y.	c #3F3B38",
"Z.	c #3F3A37",
"`.	c #3B3C36",
". . . . . . . . . . . + + . @ @ . . . . . . . . @ @ @ ",
"# $ % % & & & & * * * * & = & - * - = ; > , ; ' ' ' ' ",
") ! ) ~ { ] ] ^ ^ ^ { / { ^ ) ( ) _ ! ! _ _ : < ) ' ' ",
"[ [ [ [ [ [ [ [ [ [ [ [ [ [ [ [ [ [ } | 1 2 3 4 5 ' ' ",
"6 6 6 6 7 8 9 0 a b c d e f f f f f g f h i j k l m m ",
"0 0 0 0 0 a n o p o n a 0 q r s s s t u v v s w x v v ",
"0 0 0 0 0 y z A B A z y 0 0 a C r r D D E F r G H I I ",
"0 0 0 J K L L L L L L L K J 0 M N N O P Q R P S T U U ",
"0 0 V W X L L L L L L L X W V 0 Y Z Z Z ` Z  ...+.@.@.",
"0 #.$.X L L L L L L L L L %.$.#.&.*.=.*.-.;.>.=.,.'.'.",
"0 ).%.L L !.~.L L L {.].L L %.).0 ^./.(._.^./.:.<.[.[.",
"0 }.%.L L |.1.~.L {.2.3.L L %.}.0 p 4.p 5.6.4.4.7.8.8.",
"0 9.L L L L |.1.0.2.3.L L L L a.0 n n n b.b.c.c.d.d.d.",
"0 e.L L L L L f.g.h.L L L L L i.0 0 0 j.k.k.j.j.l.l.l.",
"0 m.L L L L {.2.n.1.~.L L L L o.0 0 0 j.k.k.j.j.l.l.l.",
"0 p.%.L L {.2.3.L ~.1.~.L L %.p.0 0 0 j.k.k.j.j.l.q.q.",
"0 r.s.L L t.u.L L L ~.v.L L e.w.0 0 j.j.k.k.j.j.l.l.l.",
"0 #.x.s.L L L L L L L L L s.y.0 0 0 j.j.k.k.j.j.l.l.l.",
"0 0 z.A.s.L L L L L L L s.A.B.0 0 0 0 j.k.k.j.j.l.l.l.",
"c 0 0 C.D.E.F.X L X F.E.G.H.0 0 0 0 0 0 k.k.j.j.l.l.l.",
"0 0 0 0 0 I.J.K.L.K.J.I.c 0 0 0 0 0 0 0 k.k.j.j.l.q.q.",
"0 M.N.0 0 0 0 0 0 0 0 0 0 0 0 0 0 0 0 0 k.k.j.j.l.q.q.",
"0 j.j.c 0 0 0 0 0 0 0 0 0 0 0 0 0 0 0 0 k.k.j.j.l.q.q.",
"0 N.0 O.P.P.Q.R.S.T.U.V.V.W.k.k.0 0 0 X.k.k.j.j.l.l.l.",
"0 0 0 0 0 0 0 0 0 0 0 0 0 0 0 0 0 k.j.Y.0 0 Z.j.l.q.q.",
"0 0 0 0 0 0 0 0 0 0 0 0 0 0 0 0 0 `.0 0 k.k.j.j.l.l.l.",
"0 0 0 0 0 0 0 0 0 0 0 0 0 0 0 0 0 0 0 0 0 0 0 0 0 0 0 "};
