/* XPM */
static char * maximizeufcs_xpm[] = {
"27 27 99 2",
"  	c None",
". 	c #636560",
"+ 	c #646661",
"@ 	c #646560",
"# 	c #535852",
"$ 	c #535957",
"% 	c #525856",
"& 	c #535854",
"* 	c #525854",
"= 	c #535955",
"- 	c #525753",
"; 	c #55544F",
"> 	c #565550",
", 	c #56514B",
"' 	c #565249",
") 	c #373632",
"! 	c #363530",
"~ 	c #373631",
"{ 	c #383733",
"] 	c #383732",
"^ 	c #393833",
"/ 	c #3A3934",
"( 	c #393834",
"_ 	c #3A3C39",
": 	c #3B3D3A",
"< 	c #393B38",
"[ 	c #393B3A",
"} 	c #383A37",
"| 	c #373936",
"1 	c #353734",
"2 	c #363835",
"3 	c #3A3B36",
"4 	c #3B3C37",
"5 	c #3B3B39",
"6 	c #393937",
"7 	c #373833",
"8 	c #52534E",
"9 	c #524E4B",
"0 	c #585451",
"a 	c #5B5754",
"b 	c #575350",
"c 	c #534F4C",
"d 	c #545452",
"e 	c #383934",
"f 	c #393A35",
"g 	c #3E3935",
"h 	c #3F3A36",
"i 	c #3D3834",
"j 	c #3C3733",
"k 	c #43403B",
"l 	c #55514E",
"m 	c #5E5A57",
"n 	c #5E5B56",
"o 	c #56524F",
"p 	c #45423D",
"q 	c #3B3831",
"r 	c #3D3A35",
"s 	c #3A3935",
"t 	c #3C3B37",
"u 	c #41403C",
"v 	c #595853",
"w 	c #5C5B56",
"x 	c #5B5A55",
"y 	c #403F3A",
"z 	c #3B3A36",
"A 	c #5D5C57",
"B 	c #51504C",
"C 	c #5D5C58",
"D 	c #3E3D39",
"E 	c #53524D",
"F 	c #5C5C54",
"G 	c #5C5B57",
"H 	c #3E3D38",
"I 	c #3D3C38",
"J 	c #3D3C37",
"K 	c #3E3E36",
"L 	c #5F5E59",
"M 	c #575651",
"N 	c #3C3B39",
"O 	c #4B4A46",
"P 	c #3C3B36",
"Q 	c #4C4B46",
"R 	c #5A5955",
"S 	c #5E5D59",
"T 	c #3F3E3A",
"U 	c #605F5B",
"V 	c #605F5A",
"W 	c #403F3B",
"X 	c #585752",
"Y 	c #5E5E56",
"Z 	c #5E5D58",
"` 	c #4A4944",
" .	c #63625D",
"..	c #62615C",
"+.	c #5A5954",
"@.	c #4B4A45",
"#.	c #3B3A35",
"$.	c #3B3A38",
"%.	c #3D3C3A",
". . . . . . . . . . . + + . @ @ . . . . . . . . . @ @ ",
"# # # # # $ % & * = * * * = * * * * - # # # # # # # # ",
"; ; ; ; ; ; ; ; ; > ; ; ; ; > ; ; ; ; ; ; ; ; ; ; ; ; ",
", , , , , , , ' , , , , , , , , , , , , , , , , , , , ",
") ) ) ) ) ! ~ ! { ) ] ^ / / ( ( { ) ) ~ ~ ) ) ) ) ) ) ",
"_ _ : _ : _ _ < [ } | | 1 2 2 | | } < < < _ _ : _ _ : ",
"3 3 4 3 4 5 5 3 6 7 8 9 0 a b c d 7 e f 4 3 3 4 3 3 4 ",
"g g g g g h i j k l m m n n m m m o p q r g g g g g g ",
"s s t s t t ( u v w w w w w w w w w x y ( s s t s s t ",
"s s t s t z { ; A w w A w w w w w w A > ( s s t s s t ",
"( ( t ( t z B A w C D s / / s ^ ^ w w A E ( ( t ( ( t ",
"( ( t ( t z E A F G H G A w w G H w w A ; ( ( t ( ( t ",
"( ( I ( I s v w w w J G w w w w H A x w x ( ( I ( ( I ",
"{ { t { t s C A w w K w w w w w H w w F L { { t { { t ",
"{ { t { t s x x w w H w w w w w H x w F A { { t { { t ",
"{ { t { t s > A w w H G w w w w H w w A M { { t { { t ",
"( ( N ( N z O L w G P / / / / / ^ w w L Q ( ( N ( ( N ",
"s s N s N z ( R S w w w w w w A w w L x { s s N s s N ",
"s s t s t t ( T U V w w A w w w w L V W ( s s t s s t ",
"z z t z t t s ( t X V Y w x w Z V Z W ( s z z t z z t ",
"z z t z t t z s ( { ` v  .....+.@.^ ( s z z z t z z t ",
"t t t t t t z z z s ( { { { { { ( s z #.#.t t t t t t ",
"t t t t t t t t t z z s z s s s $.z t t #.t t t t t t ",
"t t z t z t t z t t t t t t t N %.N t t t t t z t t z ",
"t t t t t t t t t t t t t t t t t t t t t t t t t t t ",
"t t t t t t t t t t t t t t t t t t t t t t t t t t t ",
"t t t t t t t t t t t t t t t t t t t t t t t t t t t "};
