/* XPM */
static char * maximize_xpm[] = {
"27 27 149 2",
"  	c None",
". 	c #636560",
"+ 	c #646661",
"@ 	c #646560",
"# 	c #535852",
"$ 	c #535957",
"% 	c #525856",
"& 	c #535854",
"* 	c #525854",
"= 	c #535955",
"- 	c #525753",
"; 	c #55544F",
"> 	c #565550",
", 	c #56514B",
"' 	c #565249",
") 	c #373632",
"! 	c #363530",
"~ 	c #373631",
"{ 	c #383733",
"] 	c #383732",
"^ 	c #393833",
"/ 	c #3A3934",
"( 	c #393834",
"_ 	c #3A3C39",
": 	c #3B3D3A",
"< 	c #393B38",
"[ 	c #393B3A",
"} 	c #383A37",
"| 	c #373936",
"1 	c #353734",
"2 	c #363835",
"3 	c #3A3B36",
"4 	c #3B3C37",
"5 	c #3B3B39",
"6 	c #393937",
"7 	c #373833",
"8 	c #52534E",
"9 	c #767772",
"0 	c #868782",
"a 	c #93948F",
"b 	c #878883",
"c 	c #777775",
"d 	c #545452",
"e 	c #383934",
"f 	c #393A35",
"g 	c #3E3935",
"h 	c #3F3A36",
"i 	c #3D3834",
"j 	c #3C3733",
"k 	c #43403B",
"l 	c #7F7C75",
"m 	c #95928B",
"n 	c #939089",
"o 	c #908D86",
"p 	c #8E8B84",
"q 	c #93908B",
"r 	c #97948F",
"s 	c #837E7A",
"t 	c #45423D",
"u 	c #3B3831",
"v 	c #3D3A35",
"w 	c #3A3935",
"x 	c #3C3B37",
"y 	c #41403C",
"z 	c #878681",
"A 	c #8D8C87",
"B 	c #888782",
"C 	c #868580",
"D 	c #898883",
"E 	c #403F3A",
"F 	c #3B3A36",
"G 	c #7A7975",
"H 	c #84837E",
"I 	c #83827D",
"J 	c #82817C",
"K 	c #81807B",
"L 	c #807F7A",
"M 	c #83837B",
"N 	c #898981",
"O 	c #7D7C77",
"P 	c #51504C",
"Q 	c #7E7D78",
"R 	c #7F7E79",
"S 	c #3E3D39",
"T 	c #7F7F77",
"U 	c #808078",
"V 	c #86867E",
"W 	c #54534E",
"X 	c #6C6B66",
"Y 	c #7B7B73",
"Z 	c #797873",
"` 	c #3E3D38",
" .	c #7A7A72",
"..	c #7E7E76",
"+.	c #706F6A",
"@.	c #3D3C38",
"#.	c #767570",
"$.	c #787870",
"%.	c #77776F",
"&.	c #3D3C37",
"*.	c #76766E",
"=.	c #75756B",
"-.	c #777671",
";.	c #7A7974",
">.	c #73736B",
",.	c #74746C",
"'.	c #3E3E36",
").	c #75756D",
"!.	c #76766C",
"~.	c #6F6E69",
"{.	c #707068",
"].	c #72716C",
"^.	c #74746A",
"/.	c #72726A",
"(.	c #73726D",
"_.	c #605F5B",
":.	c #6D6C67",
"<.	c #6E6D68",
"[.	c #74736E",
"}.	c #6C6C64",
"|.	c #6D6D65",
"1.	c #64635E",
"2.	c #3C3B39",
"3.	c #4C4B47",
"4.	c #6B6A66",
"5.	c #686762",
"6.	c #6A6964",
"7.	c #3C3B36",
"8.	c #4D4C48",
"9.	c #666560",
"0.	c #61605C",
"a.	c #3F3E3A",
"b.	c #61605B",
"c.	c #62615C",
"d.	c #63625D",
"e.	c #62615D",
"f.	c #403F3B",
"g.	c #5F5E59",
"h.	c #5E5D58",
"i.	c #5D5C57",
"j.	c #484742",
"k.	c #53524D",
"l.	c #5A5954",
"m.	c #5A5955",
"n.	c #595854",
"o.	c #494843",
"p.	c #3B3A35",
"q.	c #3B3A38",
"r.	c #3D3C3A",
". . . . . . . . . . . + + . @ @ . . . . . . . . . @ @ ",
"# # # # # $ % & * = * * * = * * * * - # # # # # # # # ",
"; ; ; ; ; ; ; ; ; > ; ; ; ; > ; ; ; ; ; ; ; ; ; ; ; ; ",
", , , , , , , ' , , , , , , , , , , , , , , , , , , , ",
") ) ) ) ) ! ~ ! { ) ] ^ / / ( ( { ) ) ~ ~ ) ) ) ) ) ) ",
"_ _ : _ : _ _ < [ } | | 1 2 2 | | } < < < _ _ : _ _ : ",
"3 3 4 3 4 5 5 3 6 7 8 9 0 a b c d 7 e f 4 3 3 4 3 3 4 ",
"g g g g g h i j k l m n o p o q r s t u v g g g g g g ",
"w w x w x x ( y z A B z z C C z B A D E ( w w x w w x ",
"w w x w x F { G D H I J K L K J I M N O ( w w x w w x ",
"( ( x ( x F P C Q R S w / / w ^ ^ T U V W ( ( x ( ( x ",
"( ( x ( x F X Q Y Z ` R Q Q Q R `  .Y ..+.( ( x ( ( x ",
"( ( @.( @.w #.$.%.%.&.*.*.=.*.-.` %.%.$.;.( ( @.( ( @.",
"{ { x { x w -.>.>.,.'.).!.=.=.).` ,.>.,.;.{ { x { { x ",
"{ { x { x w ~.+.{.].` ,.^.=.).).` /.{.{.(.{ { x { { x ",
"{ { x { x w _.:.X <.` ].[.,.[.(.` <.}.|.1.{ { x { { x ",
"( ( 2.( 2.F 3.4.5.6.7./ / / / / ^ 6.5.X 8.( ( 2.( ( 2.",
"w w 2.w 2.F ( _.9.1.:.+.].].].+.<.1.9.0.{ w w 2.w w 2.",
"w w x w x x ( a.b.c.b.c.d.1.1.c.b.c.e.f.( w w x w w x ",
"F F x F x x w ( x > g.h.h.h.h.h.h.i.f.( w F F x F F x ",
"F F x F x x F w ( { j.k.l.m.n.W o.^ ( w F F F x F F x ",
"x x x x x x F F F w ( { { { { { ( w F p.p.x x x x x x ",
"x x x x x x x x x F F w F w w w q.F x x p.x x x x x x ",
"x x F x F x x F x x x x x x x 2.r.2.x x x x x F x x F ",
"x x x x x x x x x x x x x x x x x x x x x x x x x x x ",
"x x x x x x x x x x x x x x x x x x x x x x x x x x x ",
"x x x x x x x x x x x x x x x x x x x x x x x x x x x "};
