/* XPM */
static char * minimizeufcs_xpm[] = {
"27 27 114 2",
"  	c None",
". 	c #636560",
"+ 	c #646661",
"@ 	c #646560",
"# 	c #525856",
"$ 	c #515755",
"% 	c #525854",
"& 	c #505954",
"* 	c #535756",
"= 	c #55544F",
"- 	c #54534E",
"; 	c #585149",
"> 	c #58514B",
", 	c #59524C",
"' 	c #565249",
") 	c #57534A",
"! 	c #56514B",
"~ 	c #524F4A",
"{ 	c #504F4A",
"] 	c #514E49",
"^ 	c #4A4944",
"/ 	c #3F3C37",
"( 	c #3C3934",
"_ 	c #3C3835",
": 	c #3B3833",
"< 	c #3A3732",
"[ 	c #393532",
"} 	c #373632",
"| 	c #373631",
"1 	c #4C4E49",
"2 	c #4C4E4B",
"3 	c #4B4D4A",
"4 	c #494B48",
"5 	c #3D3F3C",
"6 	c #363B37",
"7 	c #373936",
"8 	c #383A37",
"9 	c #363835",
"0 	c #393B3A",
"a 	c #393B38",
"b 	c #3A3C39",
"c 	c #4B4C47",
"d 	c #4B4D48",
"e 	c #4A4C47",
"f 	c #4A4B46",
"g 	c #484944",
"h 	c #3B3C37",
"i 	c #373934",
"j 	c #363833",
"k 	c #52504B",
"l 	c #57544F",
"m 	c #5D5A55",
"n 	c #575752",
"o 	c #373735",
"p 	c #383836",
"q 	c #393937",
"r 	c #3A3B36",
"s 	c #4B4843",
"t 	c #4C4741",
"u 	c #4C4743",
"v 	c #4A4740",
"w 	c #48453E",
"x 	c #3E3933",
"y 	c #45423D",
"z 	c #585451",
"A 	c #5E5B56",
"B 	c #595552",
"C 	c #46433E",
"D 	c #3E3935",
"E 	c #474642",
"F 	c #474641",
"G 	c #3D3C38",
"H 	c #393834",
"I 	c #44433E",
"J 	c #5B5A56",
"K 	c #5C5B56",
"L 	c #5B5C56",
"M 	c #5C5D55",
"N 	c #5B5C54",
"O 	c #595A54",
"P 	c #43423E",
"Q 	c #3B3A36",
"R 	c #454440",
"S 	c #45443F",
"T 	c #42413D",
"U 	c #3A3935",
"V 	c #393833",
"W 	c #575651",
"X 	c #5D5C57",
"Y 	c #5C5B57",
"Z 	c #43423D",
"` 	c #4E4D48",
" .	c #403F3B",
"..	c #3E3D39",
"+.	c #383733",
"@.	c #5B5A55",
"#.	c #3C3B37",
"$.	c #5E5D58",
"%.	c #3A3934",
"&.	c #3B3A35",
"*.	c #5E5D59",
"=.	c #383732",
"-.	c #565550",
";.	c #5F5E59",
">.	c #494843",
",.	c #5A5954",
"'.	c #3F3E39",
").	c #3D3C37",
"!.	c #605F5A",
"~.	c #484742",
"{.	c #585752",
"].	c #61605B",
"^.	c #3B3A38",
"/.	c #3C3B39",
". . . . . . . . . . . + + . @ @ . . . . . . . . . @ @ ",
"# # # # # # # # # $ # # # % % & % % # # % # # # # # * ",
"= = = = = = = = = = = = = = = = = = = = = = = = - = = ",
"; ; > > > > > > > , > > > ; ' ) ; ; ! ! ! > > ! ! ! ; ",
"~ ~ ~ ~ ~ ~ ~ ~ { { ~ ~ ] { ^ / ( ( ( _ : < [ } } | | ",
"1 1 1 2 2 1 2 2 2 2 1 3 4 5 6 7 8 9 9 9 8 7 8 0 0 a b ",
"c c c c c c c c d e f g h i j k ] l m l ] n o p q r r ",
"s s s t t t u s s v w x ( y z A A A A m A A B C : D D ",
"E E E F E E E E E E G H I J K K L L M N L L L O P H Q ",
"R R S S S R R R R T U V W X K K K K Y Y K K K X W H U ",
"P P Z Z Z P P P P G H ` X K K K K K K K K K K K X ` H ",
" . . . . . . . . .Q H = X K K K K K K K K K K K X - H ",
"..................U +.@.K K K K K K K K @.K K K K @.+.",
"#.#.#.#.#.#.#.#.#.U +.$.K @.K %.%.%.%.%.&.%.X K X *.+.",
"#.#.#.#.#.#.#.#.#.U =.X K K K X K K K K K K K K K K +.",
"#.#.#.#.#.#.#.G #.U V -.$.K K K K K K K K K K K X -.H ",
"#.#.#.#.#.#.#.#.#.Q H ^ ;.@.K K K K K K K K K K ;.>.H ",
"#.#.#.#.#.#.#.#.#.Q U H ,.$.K K K K K K K K K $.-.} U ",
"#.#.#.#.#.#.#.#.#.#.Q H '.;.;.K K K @.K K K ;.$.).H Q ",
"#.#.#.#.#.#.#.#.#.#.Q U H &.W !.$.K K K $.!.W #.H %.#.",
"#.#.#.#.#.#.#.#.#.#.Q Q U H +.~.{.].].!.{.~.+.H U #.Q ",
"#.#.#.#.#.#.#.#.#.#.#.Q Q Q U H H +.+.=.V H U Q Q U #.",
"#.#.#.#.#.#.#.G #.#.Q #.#.#.Q ^.U U U U U Q Q #.#.G #.",
"#.#.#.#.#.#.#.#.#.#.#.#.#.#.Q /./.#.#.#.#.#.#.#.Q G /.",
"#.#.#.#.#.#.#.#.#.#.#.#.#.#.#.#.#.#.#.#.#.#.#.#.#.#.#.",
"#.#.#.#.#.#.#.#.#.#.#.#.#.#.#.#.#.#.#.#.#.#.#.#.#.#.#.",
"#.#.#.#.#.#.#.#.#.#.#.#.#.#.#.#.#.#.#.#.#.#.#.#.#.#.#."};
