/* XPM */
static char * minimize_xpm[] = {
"27 27 175 2",
"  	c None",
". 	c #636560",
"+ 	c #646661",
"@ 	c #646560",
"# 	c #525856",
"$ 	c #515755",
"% 	c #525854",
"& 	c #505954",
"* 	c #535756",
"= 	c #55544F",
"- 	c #54534E",
"; 	c #585149",
"> 	c #58514B",
", 	c #59524C",
"' 	c #565249",
") 	c #57534A",
"! 	c #56514B",
"~ 	c #524F4A",
"{ 	c #504F4A",
"] 	c #514E49",
"^ 	c #4A4944",
"/ 	c #3F3C37",
"( 	c #3C3934",
"_ 	c #3C3835",
": 	c #3B3833",
"< 	c #3A3732",
"[ 	c #393532",
"} 	c #373632",
"| 	c #373631",
"1 	c #4C4E49",
"2 	c #4C4E4B",
"3 	c #4B4D4A",
"4 	c #494B48",
"5 	c #3D3F3C",
"6 	c #363B37",
"7 	c #373936",
"8 	c #383A37",
"9 	c #363835",
"0 	c #393B3A",
"a 	c #393B38",
"b 	c #3A3C39",
"c 	c #4B4C47",
"d 	c #4B4D48",
"e 	c #4A4C47",
"f 	c #4A4B46",
"g 	c #484944",
"h 	c #3B3C37",
"i 	c #373934",
"j 	c #363833",
"k 	c #595A55",
"l 	c #73746F",
"m 	c #878883",
"n 	c #979893",
"o 	c #868782",
"p 	c #585954",
"q 	c #373735",
"r 	c #383836",
"s 	c #393937",
"t 	c #3A3B36",
"u 	c #4B4843",
"v 	c #4C4741",
"w 	c #4C4743",
"x 	c #4A4740",
"y 	c #48453E",
"z 	c #3E3933",
"A 	c #45423D",
"B 	c #84817C",
"C 	c #96938C",
"D 	c #939089",
"E 	c #908D86",
"F 	c #8E8B84",
"G 	c #46433E",
"H 	c #3E3935",
"I 	c #474642",
"J 	c #474641",
"K 	c #3D3C38",
"L 	c #393834",
"M 	c #44433E",
"N 	c #8A8984",
"O 	c #8D8C87",
"P 	c #888782",
"Q 	c #878681",
"R 	c #868580",
"S 	c #868581",
"T 	c #43423E",
"U 	c #3B3A36",
"V 	c #454440",
"W 	c #45443F",
"X 	c #42413D",
"Y 	c #3A3935",
"Z 	c #393833",
"` 	c #7E7D78",
" .	c #898883",
"..	c #84837E",
"+.	c #83837B",
"@.	c #82827A",
"#.	c #81807B",
"$.	c #807F7A",
"%.	c #82817C",
"&.	c #84847C",
"*.	c #7D7C77",
"=.	c #43423D",
"-.	c #808078",
";.	c #7F7F77",
">.	c #7E7E74",
",.	c #7C7C74",
"'.	c #7B7B73",
").	c #7A7A72",
"!.	c #7E7E76",
"~.	c #403F3B",
"{.	c #6E6D68",
"].	c #79796F",
"^.	c #787870",
"/.	c #77776F",
"(.	c #797971",
"_.	c #7D7D75",
":.	c #3E3D39",
"<.	c #383733",
"[.	c #7A7974",
"}.	c #777671",
"|.	c #76766E",
"1.	c #767570",
"2.	c #797873",
"3.	c #3C3B37",
"4.	c #73726D",
"5.	c #73736B",
"6.	c #74746C",
"7.	c #3A3934",
"8.	c #3B3A35",
"9.	c #74736E",
"0.	c #72726A",
"a.	c #383732",
"b.	c #71706B",
"c.	c #707068",
"d.	c #717169",
"e.	c #7B7A75",
"f.	c #7C7B76",
"g.	c #6F6F67",
"h.	c #706F6A",
"i.	c #605F5A",
"j.	c #6D6C67",
"k.	c #6C6C64",
"l.	c #6E6E66",
"m.	c #72716C",
"n.	c #61605B",
"o.	c #4C4B46",
"p.	c #6B6A65",
"q.	c #686762",
"r.	c #6A6964",
"s.	c #6B6B63",
"t.	c #696961",
"u.	c #67675F",
"v.	c #4A4945",
"w.	c #666560",
"x.	c #64635E",
"y.	c #65645F",
"z.	c #686860",
"A.	c #6A6A62",
"B.	c #595853",
"C.	c #3F3E39",
"D.	c #62615C",
"E.	c #63625D",
"F.	c #63635B",
"G.	c #3D3C37",
"H.	c #5F5E59",
"I.	c #5E5D58",
"J.	c #5D5C57",
"K.	c #54534F",
"L.	c #51504C",
"M.	c #5A5955",
"N.	c #5A5954",
"O.	c #585752",
"P.	c #51504B",
"Q.	c #3B3A38",
"R.	c #3C3B39",
". . . . . . . . . . . + + . @ @ . . . . . . . . . @ @ ",
"# # # # # # # # # $ # # # % % & % % # # % # # # # # * ",
"= = = = = = = = = = = = = = = = = = = = = = = = - = = ",
"; ; > > > > > > > , > > > ; ' ) ; ; ! ! ! > > ! ! ! ; ",
"~ ~ ~ ~ ~ ~ ~ ~ { { ~ ~ ] { ^ / ( ( ( _ : < [ } } | | ",
"1 1 1 2 2 1 2 2 2 2 1 3 4 5 6 7 8 9 9 9 8 7 8 0 0 a b ",
"c c c c c c c c d e f g h i j k l m n o l p q r s t t ",
"u u u v v v w u u x y z ( A B C D E F E D C B G : H H ",
"I I I J I I I I I I K L M N O P Q R S R Q P O N T L U ",
"V V W W W V V V V X Y Z `  ...+.@.#.$.#.%.@.&.N *.L Y ",
"T T =.=.=.T T T T K L = R -.;.>.,.'.).'.'.!.;.;.R - L ",
"~.~.~.~.~.~.~.~.~.U L {.*.).).].^./././.^.(.).)._.{.L ",
":.:.:.:.:.:.:.:.:.Y <.[.}./.|.|.|.1.1.1.}.|.|././.2.<.",
"3.3.3.3.3.3.3.3.3.Y <.[.4.5.6.7.7.7.7.7.8.7.9.5.0.2.<.",
"3.3.3.3.3.3.3.3.3.Y a.b.c.c.d.[.e.f.f.f.e.[.b.g.c.h.<.",
"3.3.3.3.3.3.3.K 3.Y Z i.j.k.l.h.0.6.6.5.m.h.l.k.j.n.L ",
"3.3.3.3.3.3.3.3.3.U L o.p.q.r.s.l.g.c.g.{.p.t.u.p.v.L ",
"3.3.3.3.3.3.3.3.3.U Y L i.w.x.y.z.t.A.A.z.y.x.w.B.} Y ",
"3.3.3.3.3.3.3.3.3.3.U L C.n.D.n.D.E.x.F.E.n.D.i.G.L U ",
"3.3.3.3.3.3.3.3.3.3.U Y L 8.= H.I.J.J.J.I.H.K.3.L 7.3.",
"3.3.3.3.3.3.3.3.3.3.U U Y L <.V L.M.N.O.P.W <.L Y 3.U ",
"3.3.3.3.3.3.3.3.3.3.3.U U U Y L L <.<.a.Z L Y U U Y 3.",
"3.3.3.3.3.3.3.K 3.3.U 3.3.3.U Q.Y Y Y Y Y U U 3.3.K 3.",
"3.3.3.3.3.3.3.3.3.3.3.3.3.3.U R.R.3.3.3.3.3.3.3.U K R.",
"3.3.3.3.3.3.3.3.3.3.3.3.3.3.3.3.3.3.3.3.3.3.3.3.3.3.3.",
"3.3.3.3.3.3.3.3.3.3.3.3.3.3.3.3.3.3.3.3.3.3.3.3.3.3.3.",
"3.3.3.3.3.3.3.3.3.3.3.3.3.3.3.3.3.3.3.3.3.3.3.3.3.3.3."};
