/* XPM */
static char * stickfcs_xpm[] = {
"27 27 102 2",
"  	c #65645E",
". 	c #575651",
"+ 	c #55544F",
"@ 	c #53524D",
"# 	c #504F4B",
"$ 	c #4E4D48",
"% 	c #4C4B46",
"& 	c #4A4844",
"* 	c #474541",
"= 	c #3F3D3A",
"- 	c #353330",
"; 	c #363431",
"> 	c #464441",
", 	c #474642",
"' 	c #3F3F3B",
") 	c #2D2C2A",
"! 	c #2C2B29",
"~ 	c #2F2E2C",
"{ 	c #302F2C",
"] 	c #2D2C29",
"^ 	c #2F2F2C",
"/ 	c #403F3C",
"( 	c #454440",
"_ 	c #3D3C39",
": 	c #282725",
"< 	c #343330",
"[ 	c #42423E",
"} 	c #42423F",
"| 	c #3B3A37",
"1 	c #2A2A27",
"2 	c #3E3D39",
"3 	c #43423D",
"4 	c #2E2D2A",
"5 	c #33322E",
"6 	c #3C3A36",
"7 	c #989792",
"8 	c #CCC7C1",
"9 	c #9A9792",
"0 	c #3C3B36",
"a 	c #32312E",
"b 	c #2D2D29",
"c 	c #403F3A",
"d 	c #403F3B",
"e 	c #353431",
"f 	c #2B2B28",
"g 	c #393835",
"h 	c #9C9995",
"i 	c #C8C3BC",
"j 	c #C1BCB5",
"k 	c #9B9893",
"l 	c #31302D",
"m 	c #2F2E2B",
"n 	c #CEC9C2",
"o 	c #C0BAB4",
"p 	c #C2BDB6",
"q 	c #C1BBB4",
"r 	c #CDC7C1",
"s 	c #3E3C39",
"t 	c #30302C",
"u 	c #3C3B37",
"v 	c #32322E",
"w 	c #3C3C38",
"x 	c #CFCAC3",
"y 	c #BFBAB3",
"z 	c #C1BCB4",
"A 	c #3C3B38",
"B 	c #31312D",
"C 	c #383733",
"D 	c #353430",
"E 	c #383734",
"F 	c #A09D99",
"G 	c #9A9893",
"H 	c #373733",
"I 	c #42413D",
"J 	c #393834",
"K 	c #3A3935",
"L 	c #373632",
"M 	c #96938F",
"N 	c #CBC6C0",
"O 	c #969490",
"P 	c #4B4A47",
"Q 	c #53524F",
"R 	c #464542",
"S 	c #464442",
"T 	c #3B3A36",
"U 	c #52514E",
"V 	c #4B4A46",
"W 	c #3D3C38",
"X 	c #6B6A67",
"Y 	c #61615D",
"Z 	c #5D5D59",
"` 	c #63625F",
" .	c #605F5C",
"..	c #666562",
"+.	c #484744",
"@.	c #464541",
"#.	c #5E5D5A",
"$.	c #82827F",
"%.	c #979694",
"&.	c #999896",
"*.	c #81807E",
"=.	c #5D5C59",
"                                                      ",
". . . . . . . . . . . . . . . . . . . . . . . . . . . ",
"+ + + + + + + + + + + + + + + + + + + + + + + + + + + ",
"@ @ @ @ @ @ @ @ @ @ @ @ @ @ @ @ @ @ @ @ @ @ @ @ @ @ @ ",
"# # # # # # # # # # # # # # # # # # # # # # # # # # # ",
"$ $ $ $ $ $ $ $ $ $ $ $ $ $ $ $ $ $ $ $ $ $ $ $ $ $ $ ",
"% % % % % % % % % % % % % % % % % % % % % % % % % % % ",
"& & & & & & & & & & & & & & & & * = - ; = > & & & & & ",
", , , , , , , , , , , , , , , ' ) ! ~ { ] ^ / , , , , ",
"( ( ( ( ( ( ( ( ( ( ( ( ( ( _ : < _ [ } | < 1 2 ( ( ( ",
"3 3 3 3 3 3 3 3 3 3 3 3 3 2 4 5 6 7 8 8 9 0 a b c 3 3 ",
"d d d d d d d d d d d d d e f g h i j j i k g f e d d ",
"2 2 2 2 2 2 2 2 2 2 2 2 2 l m _ n o p p q r s m t 2 2 ",
"u u u u u u u u u u u u u v l w x y p p z 8 A B v u u ",
"u u u u u u u u u u u u u C D E F i j j i G H < C u u ",
"u u u u u u u u u u u u u I J K L M N N O L K J / u u ",
"u u u u u u u u u u u u u P Q K u u R S | u T U V u u ",
"u u u u u u u u u u u u u W , X Y Z ` ` Z  ...+.W u u ",
"u u u u u u u u u u u u u u u @.#.$.%.&.*.=., u u u u ",
"u u u u u u u u u u u u u u u u u u u u u u u u u u u ",
"u u u u u u u u u u u u u u u u u u u u u u u u u u u ",
"u u u u u u u u u u u u u u u u u u u u u u u u u u u ",
"u u u u u u u u u u u u u u u u u u u u u u u u u u u ",
"u u u u u u u u u u u u u u u u u u u u u u u u u u u ",
"u u u u u u u u u u u u u u u u u u u u u u u u u u u ",
"u u u u u u u u u u u u u u u u u u u u u u u u u u u ",
"u u u u u u u u u u u u u u u u u u u u u u u u u u u "};
