/* XPM */
static char * stickpressed_xpm[] = {
"27 27 95 2",
"  	c #65645E",
". 	c #575651",
"+ 	c #55544F",
"@ 	c #53524D",
"# 	c #504F4B",
"$ 	c #4E4D48",
"% 	c #4C4B46",
"& 	c #4A4844",
"* 	c #474541",
"= 	c #3F3D3A",
"- 	c #353330",
"; 	c #363431",
"> 	c #464441",
", 	c #474642",
"' 	c #3F3F3B",
") 	c #2D2C2A",
"! 	c #2C2B29",
"~ 	c #2F2E2C",
"{ 	c #302F2C",
"] 	c #2D2C29",
"^ 	c #2F2F2C",
"/ 	c #403F3C",
"( 	c #454440",
"_ 	c #3D3C39",
": 	c #282725",
"< 	c #343330",
"[ 	c #42423E",
"} 	c #42423F",
"| 	c #3B3A37",
"1 	c #2A2A27",
"2 	c #3E3D39",
"3 	c #43423D",
"4 	c #2E2D2A",
"5 	c #33322E",
"6 	c #3F3D39",
"7 	c #767571",
"8 	c #696663",
"9 	c #777471",
"0 	c #3F3E39",
"a 	c #32312E",
"b 	c #2D2D29",
"c 	c #403F3A",
"d 	c #403F3B",
"e 	c #353431",
"f 	c #2B2B28",
"g 	c #393835",
"h 	c #797574",
"i 	c #555351",
"j 	c #787672",
"k 	c #31302D",
"l 	c #2F2E2B",
"m 	c #696664",
"n 	c #3E3C39",
"o 	c #30302C",
"p 	c #3C3B37",
"q 	c #32322E",
"r 	c #3C3C38",
"s 	c #696764",
"t 	c #3C3B38",
"u 	c #31312D",
"v 	c #383733",
"w 	c #353430",
"x 	c #383734",
"y 	c #7A7875",
"z 	c #777572",
"A 	c #373733",
"B 	c #42413D",
"C 	c #393834",
"D 	c #3A3935",
"E 	c #76736F",
"F 	c #686663",
"G 	c #767371",
"H 	c #3A3835",
"I 	c #4B4A47",
"J 	c #53524F",
"K 	c #464542",
"L 	c #464442",
"M 	c #3B3A36",
"N 	c #52514E",
"O 	c #4B4A46",
"P 	c #3D3C38",
"Q 	c #6B6A67",
"R 	c #61615D",
"S 	c #5D5D59",
"T 	c #63625F",
"U 	c #605F5C",
"V 	c #666562",
"W 	c #484744",
"X 	c #464541",
"Y 	c #5E5D5A",
"Z 	c #81817E",
"` 	c #959492",
" .	c #989795",
"..	c #81807E",
"+.	c #5D5C59",
"                                                      ",
". . . . . . . . . . . . . . . . . . . . . . . . . . . ",
"+ + + + + + + + + + + + + + + + + + + + + + + + + + + ",
"@ @ @ @ @ @ @ @ @ @ @ @ @ @ @ @ @ @ @ @ @ @ @ @ @ @ @ ",
"# # # # # # # # # # # # # # # # # # # # # # # # # # # ",
"$ $ $ $ $ $ $ $ $ $ $ $ $ $ $ $ $ $ $ $ $ $ $ $ $ $ $ ",
"% % % % % % % % % % % % % % % % % % % % % % % % % % % ",
"& & & & & & & & & & & & & & & & * = - ; = > & & & & & ",
", , , , , , , , , , , , , , , ' ) ! ~ { ] ^ / , , , , ",
"( ( ( ( ( ( ( ( ( ( ( ( ( ( _ : < _ [ } | < 1 2 ( ( ( ",
"3 3 3 3 3 3 3 3 3 3 3 3 3 2 4 5 6 7 8 8 9 0 a b c 3 3 ",
"d d d d d d d d d d d d d e f g h i i i i j g f e d d ",
"2 2 2 2 2 2 2 2 2 2 2 2 2 k l _ m i i i i 8 n l o 2 2 ",
"p p p p p p p p p p p p p q k r s i i i i 8 t u q p p ",
"p p p p p p p p p p p p p v w x y i i i i z A < v p p ",
"p p p p p p p p p p p p p B C D D E F F G H D C / p p ",
"p p p p p p p p p p p p p I J D p p K L | p M N O p p ",
"p p p p p p p p p p p p p P , Q R S T T S U V W P p p ",
"p p p p p p p p p p p p p p p X Y Z `  ...+., p p p p ",
"p p p p p p p p p p p p p p p p p p p p p p p p p p p ",
"p p p p p p p p p p p p p p p p p p p p p p p p p p p ",
"p p p p p p p p p p p p p p p p p p p p p p p p p p p ",
"p p p p p p p p p p p p p p p p p p p p p p p p p p p ",
"p p p p p p p p p p p p p p p p p p p p p p p p p p p ",
"p p p p p p p p p p p p p p p p p p p p p p p p p p p ",
"p p p p p p p p p p p p p p p p p p p p p p p p p p p ",
"p p p p p p p p p p p p p p p p p p p p p p p p p p p "};
