/* XPM */
static char * stuckfcs_xpm[] = {
"27 27 88 1",
" 	c None",
".	c #65645E",
"+	c #575651",
"@	c #55544F",
"#	c #53524D",
"$	c #504F4B",
"%	c #4E4D48",
"&	c #4C4B46",
"*	c #4A4844",
"=	c #474541",
"-	c #3F3D3A",
";	c #353330",
">	c #363431",
",	c #464441",
"'	c #474642",
")	c #3F3F3B",
"!	c #2D2C2A",
"~	c #2C2B29",
"{	c #2F2E2C",
"]	c #302F2C",
"^	c #2D2C29",
"/	c #2F2F2C",
"(	c #403F3C",
"_	c #454440",
":	c #3D3C39",
"<	c #282725",
"[	c #343330",
"}	c #42423E",
"|	c #42423F",
"1	c #3B3A37",
"2	c #2A2A27",
"3	c #3E3D39",
"4	c #43423D",
"5	c #2E2D2A",
"6	c #33322E",
"7	c #3C3A36",
"8	c #E36128",
"9	c #EA7241",
"0	c #3C3B36",
"a	c #32312E",
"b	c #2D2D29",
"c	c #403F3A",
"d	c #403F3B",
"e	c #353431",
"f	c #2B2B28",
"g	c #393835",
"h	c #E0520A",
"i	c #31302D",
"j	c #2F2E2B",
"k	c #3E3C39",
"l	c #30302C",
"m	c #3C3B37",
"n	c #32322E",
"o	c #3C3C38",
"p	c #DF5004",
"q	c #DF5106",
"r	c #3C3B38",
"s	c #31312D",
"t	c #383733",
"u	c #353430",
"v	c #383734",
"w	c #373733",
"x	c #42413D",
"y	c #393834",
"z	c #3A3935",
"A	c #373632",
"B	c #4B4A47",
"C	c #53524F",
"D	c #464542",
"E	c #464442",
"F	c #3B3A36",
"G	c #52514E",
"H	c #4B4A46",
"I	c #3D3C38",
"J	c #6B6A67",
"K	c #61615D",
"L	c #5D5D59",
"M	c #63625F",
"N	c #605F5C",
"O	c #666562",
"P	c #484744",
"Q	c #464541",
"R	c #5E5D5A",
"S	c #82827F",
"T	c #979694",
"U	c #999896",
"V	c #81807E",
"W	c #5D5C59",
"...........................",
"+++++++++++++++++++++++++++",
"@@@@@@@@@@@@@@@@@@@@@@@@@@@",
"###########################",
"$$$$$$$$$$$$$$$$$$$$$$$$$$$",
"%%%%%%%%%%%%%%%%%%%%%%%%%%%",
"&&&&&&&&&&&&&&&&&&&&&&&&&&&",
"****************=-;>-,*****",
"''''''''''''''')!~{]^/(''''",
"______________:<[:}|1[23___",
"4444444444444356789980abc44",
"dddddddddddddefg89hh98gfedd",
"3333333333333ij:9hhhh9kjl33",
"mmmmmmmmmmmmmnio9hpqh9rsnmm",
"mmmmmmmmmmmmmtuv89hh98w[tmm",
"mmmmmmmmmmmmmxyzA8998Azy(mm",
"mmmmmmmmmmmmmBCzmmDE1mFGHmm",
"mmmmmmmmmmmmmI'JKLMMLNOPImm",
"mmmmmmmmmmmmmmmQRSTUVW'mmmm",
"mmmmmmmmmmmmmmmmmmmmmmmmmmm",
"mmmmmmmmmmmmmmmmmmmmmmmmmmm",
"mmmmmmmmmmmmmmmmmmmmmmmmmmm",
"mmmmmmmmmmmmmmmmmmmmmmmmmmm",
"mmmmmmmmmmmmmmmmmmmmmmmmmmm",
"mmmmmmmmmmmmmmmmmmmmmmmmmmm",
"mmmmmmmmmmmmmmmmmmmmmmmmmmm",
"mmmmmmmmmmmmmmmmmmmmmmmmmmm"};
