/* XPM */
static char * tbarfcs_xpm[] = {
"26 22 66 1",
" 	c None",
".	c #7A6D5D",
"+	c #796E5D",
"@	c #7A6E5D",
"#	c #796D5D",
"$	c #7E7260",
"%	c #7F7260",
"&	c #7F725F",
"*	c #7E725F",
"=	c #7E7160",
"-	c #7E715F",
";	c #7D725F",
">	c #837563",
",	c #837663",
"'	c #827563",
")	c #827562",
"!	c #837562",
"~	c #847664",
"{	c #847663",
"]	c #837564",
"^	c #827663",
"/	c #817461",
"(	c #827462",
"_	c #817462",
":	c #827461",
"<	c #817362",
"[	c #817361",
"}	c #7F7261",
"|	c #7E7261",
"1	c #7F7160",
"2	c #7D7161",
"3	c #7D7160",
"4	c #7C705F",
"5	c #7D705E",
"6	c #7C6F5F",
"7	c #7C705E",
"8	c #7C6F5E",
"9	c #7B6F5E",
"0	c #7A6E5E",
"a	c #796D5C",
"b	c #766B5C",
"c	c #776C5C",
"d	c #776B5B",
"e	c #776B5C",
"f	c #766B5B",
"g	c #756B5C",
"h	c #766A5B",
"i	c #756B5B",
"j	c #766A5C",
"k	c #736959",
"l	c #74685A",
"m	c #746859",
"n	c #73685A",
"o	c #736859",
"p	c #706658",
"q	c #6F6557",
"r	c #6E6456",
"s	c #6D6356",
"t	c #6C6255",
"u	c #6A6154",
"v	c #696053",
"w	c #686053",
"x	c #675F52",
"y	c #665E51",
"z	c #655D51",
"A	c #645C50",
".+.+.+.@.@#@##.#.#.##.#.#@",
"$%$%$&$$$$*=$=$-$=;=*=$*$*",
">,'',','>'>'>''')'','!'>'>",
"~>>{>{],,>,>,,>,,>,>,>^>^>",
"/((_:__:/((/(///</[/[[_[/[",
"}%%$}}$}}$%%|1$$1$22$3$33=",
"44554667767784488878448779",
"00@@@@0..@@##@aa@##..#aa##",
"bccbbddbbeeffgghiijjiijiih",
"kkllkkmmmnnmmoommooooooooo",
"pppppppppppppppppppppppppp",
"qqqqqqqqqqqqqqqqqqqqqqqqqq",
"rrrrrrrrrrrrrrrrrrrrrrrrrr",
"ssssssssssssssssssssssssss",
"tttttttttttttttttttttttttt",
"uuuuuuuuuuuuuuuuuuuuuuuuuu",
"vvvvvvvvvvvvvvvvvvvvvvvvvv",
"wwwwwwwwwwwwwwwwwwwwwwwwww",
"xxxxxxxxxxxxxxxxxxxxxxxxxx",
"yyyyyyyyyyyyyyyyyyyyyyyyyy",
"zzzzzzzzzzzzzzzzzzzzzzzzzz",
"AAAAAAAAAAAAAAAAAAAAAAAAAA"};
